<svg width="960" height="720" xmlns="http://www.w3.org/2000/svg" xmlns:xlink="http://www.w3.org/1999/xlink" overflow="hidden"><defs><clipPath id="clip0"><rect x="0" y="0" width="960" height="720"/></clipPath></defs><g clip-path="url(#clip0)"><rect x="0" y="0" width="960" height="720" fill="#E9F1F9"/><path d="M368.05 302.641 404.306 303.425C407.65 303.498 407.65 303.568 404.306 303.641L368.05 304.425C364.706 304.497 361.616 305.282 358.631 306.818L302.809 335.529C300.272 336.834 296.402 338.859 294.933 337.385 292.551 334.993 297.687 332.568 300.736 331.167L358.537 304.617C361.585 303.216 364.706 302.568 368.05 302.641Z" stroke="#435BA1" stroke-width="1.65879" stroke-linecap="round" stroke-linejoin="round" stroke-miterlimit="10" fill="#435BA1" fill-rule="evenodd"/><path d="M606.5 304.5C626.525 304.5 633.276 321.5 651.5 321.5" stroke="#435BA1" stroke-width="1.65879" stroke-linecap="round" stroke-linejoin="round" stroke-miterlimit="10" fill="none" fill-rule="evenodd"/><path d="M368.05 415.575 404.306 416.359C407.65 416.432 407.65 416.502 404.306 416.575L368.05 417.359C364.706 417.432 361.585 416.784 358.537 415.383L300.736 388.833C298.146 387.643 294.178 385.83 294.396 383.746 294.752 380.359 299.823 382.935 302.809 384.471L358.631 413.182C361.616 414.718 364.706 415.503 368.05 415.575Z" stroke="#435BA1" stroke-width="1.65879" stroke-linecap="round" stroke-linejoin="round" stroke-miterlimit="10" fill="#435BA1" fill-rule="evenodd"/><path d="M606.5 416.5C626.525 416.5 633.276 433.5 651.5 433.5" stroke="#435BA1" stroke-width="1.65879" stroke-linecap="round" stroke-linejoin="round" stroke-miterlimit="10" fill="none" fill-rule="evenodd"/><path d="M85.2855 316.5 261.715 316.5C285.897 316.5 305.5 336.199 305.5 360.5 305.5 384.801 285.897 404.5 261.715 404.5L85.2855 404.5C61.1029 404.5 41.5001 384.801 41.5001 360.5 41.5001 336.199 61.1029 316.5 85.2855 316.5Z" stroke="#435BA1" stroke-width="4.97638" stroke-linejoin="round" stroke-miterlimit="10" fill="#435BA1" fill-rule="evenodd"/><text fill="#FFFFFF" font-family="SimSun,SimSun_MSFontService,sans-serif" font-weight="400" font-size="29" transform="translate(83.9079 373)">超市营业时间</text><path d="M415.655 276 600.345 276C604.817 276 607 278.174 607 282.628L607 326.372C607 330.826 604.817 333 600.345 333L415.655 333C411.183 333 409 330.826 409 326.372L409 282.628C409 278.174 411.183 276 415.655 276Z" stroke="#435BA1" stroke-width="1.65879" stroke-linejoin="round" stroke-miterlimit="10" fill="#FFFFFF" fill-rule="evenodd"/><text fill="#303030" font-family="SimSun,SimSun_MSFontService,sans-serif" font-weight="400" font-size="25" transform="translate(444.297 316)">宿舍楼超市</text><path d="M651 321 846 321" stroke="#435BA1" stroke-width="1.65879" stroke-linejoin="round" stroke-miterlimit="10" fill="none" fill-rule="evenodd"/><text fill="#303030" font-family="SimSun,SimSun_MSFontService,sans-serif" font-weight="400" font-size="21" transform="translate(675.153 314)">早7:00-晚10:30</text><path d="M415.655 388 600.345 388C604.817 388 607 390.174 607 394.628L607 438.372C607 442.826 604.817 445 600.345 445L415.655 445C411.183 445 409 442.826 409 438.372L409 394.628C409 390.174 411.183 388 415.655 388Z" stroke="#435BA1" stroke-width="1.65879" stroke-linejoin="round" stroke-miterlimit="10" fill="#FFFFFF" fill-rule="evenodd"/><text fill="#303030" font-family="SimSun,SimSun_MSFontService,sans-serif" font-weight="400" font-size="25" transform="translate(444.297 428)">教学楼超市</text><path d="M651 433 924 433" stroke="#435BA1" stroke-width="1.65879" stroke-linejoin="round" stroke-miterlimit="10" fill="none" fill-rule="evenodd"/><text fill="#303030" font-family="SimSun,SimSun_MSFontService,sans-serif" font-weight="400" font-size="21" transform="translate(677.55 426)">早<tspan font-size="21" x="21.0001" y="0">7:00</tspan>-第二天凌晨3:00</text></g></svg>