<svg id="图层_1" data-name="图层 1" xmlns="http://www.w3.org/2000/svg" viewBox="0 0 275.02 324.91"><defs><style>.cls-1{fill:#f0e646;}.cls-2{fill:#f6f059;}.cls-3{fill:#e1cd1b;}.cls-4{fill:#f2ed61;}.cls-5{fill:#e6d62a;}.cls-6{fill:#ece045;}.cls-7{fill:#e4d329;}.cls-8{fill:#ebdf5d;}.cls-9{fill:#f3eb5a;}.cls-10{fill:#f5f199;}.cls-11{fill:#efe860;}.cls-12{fill:#d1d0a5;}.cls-13{fill:#e4db57;}.cls-14{fill:#e3d029;}.cls-15{fill:#f3ef83;}.cls-16{fill:#a6a485;}.cls-17{fill:#b2b197;}.cls-18{fill:#e9e170;}.cls-19{fill:#d7ca56;}.cls-20{fill:#e8e8df;}.cls-21{fill:#ebe27e;}.cls-22{fill:#f6f2be;}.cls-23{fill:#eeedd1;}.cls-24{fill:#e5d427;}.cls-25{fill:#f9f69b;}.cls-26{fill:#757562;}.cls-27{fill:#f0e650;}.cls-28{fill:#888662;}.cls-29{fill:#f5f080;}.cls-30{fill:#f3ee68;}.cls-31{fill:#e3d01f;}.cls-32{fill:#f6f061;}.cls-33{fill:#faf7ac;}.cls-34{fill:#f8f484;}.cls-35{fill:#f8f37c;}.cls-36{fill:#f9f593;}.cls-37{fill:#f7f272;}.cls-38{fill:#f7f164;}.cls-39{fill:#f7f26c;}.cls-40{fill:#f7f15e;}.cls-41{fill:#f9f58c;}.cls-42{fill:#f9f699;}.cls-43{fill:#e3d224;}.cls-44{fill:#deca1b;}.cls-45{fill:#e1ce1e;}.cls-46{fill:#fcfbd6;}.cls-47{fill:#fcfac8;}.cls-48{fill:#faf8b1;}.cls-49{fill:#8f8a53;}.cls-50{fill:#ede23e;}.cls-51{fill:#a2a197;}.cls-52{fill:#a49c52;}.cls-53{fill:#aca77c;}.cls-54{fill:#b0ac8d;}.cls-55{fill:#bfb767;}.cls-56{fill:#a29f77;}.cls-57{fill:#f6f058;}.cls-58{fill:#e2d021;}.cls-59{fill:#f3ec54;}.cls-60{fill:#ede13e;}.cls-61{fill:#f1e854;}.cls-62{fill:#e6d736;}.cls-63{fill:#ece042;}.cls-64{fill:#7b7b68;}.cls-65{fill:#f3ee71;}.cls-66{fill:#838165;}.cls-67{fill:#eae455;}.cls-68{fill:#f1eb60;}.cls-69{fill:#dfd23c;}.cls-70{fill:#e6de58;}.cls-71{fill:#e5d83d;}.cls-72{fill:#ece049;}.cls-73{fill:#95958c;}.cls-74{fill:#797444;}.cls-75{fill:#80807a;}.cls-76{fill:#79786a;}.cls-77{fill:#faf8c6;}.cls-78{fill:#faf8b4;}.cls-79{fill:#c6c590;}.cls-80{fill:#f8f6c5;}.cls-81{fill:#ebdf5c;}.cls-82{fill:#6c6c5c;}.cls-83{fill:#858470;}.cls-84{fill:#8f8e73;}.cls-85{fill:#93927e;}.cls-86{fill:#7f7e6e;}.cls-87{fill:#818069;}.cls-88{fill:#86866e;}.cls-89{fill:#707057;}.cls-90{fill:#94927a;}.cls-91{fill:#a8a671;}.cls-92{fill:#969587;}.cls-93{fill:#b2b07c;}.cls-94{fill:#838265;}.cls-95{fill:#e2e098;}.cls-96{fill:#e7e493;}.cls-97{fill:#6f694d;}.cls-98{fill:#bab887;}.cls-99{fill:#cbc896;}.cls-100{fill:#939490;}.cls-101{fill:#fbf8ba;}.cls-102{fill:#9f9b75;}.cls-103{fill:#959483;}.cls-104{fill:#8b8a75;}.cls-105{fill:#d4c84a;}.cls-106{fill:#98967f;}.cls-107{fill:#abaaa1;}.cls-108{fill:#f5f2ab;}.cls-109{fill:#716d4d;}.cls-110{fill:#f6f16a;}.cls-111{fill:#f5f073;}.cls-112{fill:#fbf8b7;}.cls-113{fill:#faf7af;}.cls-114{fill:#f9f58d;}.cls-115{fill:#e7e278;}.cls-116{fill:#faf6a2;}.cls-117{fill:#fbf9bf;}.cls-118{fill:#f7f4a5;}.cls-119{fill:#e4e06b;}.cls-120{fill:#f6f291;}.cls-121{fill:#fdfce7;}.cls-122{fill:#fdfce1;}.cls-123{fill:#fbf9c1;}.cls-124{fill:#faf7a6;}.cls-125{fill:#faf6a0;}.cls-126{fill:#e9da32;}.cls-127{fill:#e9dc36;}.cls-128{fill:#e8d92e;}.cls-129{fill:#817a3b;}.cls-130{fill:#918b5e;}.cls-131{fill:#757152;}.cls-132{fill:#90873d;}.cls-133{fill:#8e8958;}.cls-134{fill:#858054;}.cls-135{fill:#767257;}.cls-136{fill:#fcfacb;}.cls-137{fill:#fcfbda;}.cls-138{fill:#fdfbde;}.cls-139{fill:#fdfce2;}.cls-140{fill:#f0e647;}.cls-141{fill:#ece03b;}.cls-142{fill:#aaa469;}.cls-143{fill:#f6f062;}.cls-144{fill:#848367;}.cls-145{fill:#f3ed57;}.cls-146{fill:#f7f270;}.cls-147{fill:#f8f482;}.cls-148{fill:#faf7a7;}.cls-149{fill:#f9f6ad;}.cls-150{fill:#f9f69f;}.cls-151{fill:#fbfac7;}.cls-152{fill:#f5f07d;}.cls-153{fill:#f7f4a0;}.cls-154{fill:#f5f18d;}.cls-155{fill:#918f5c;}.cls-156{fill:#7c7a59;}.cls-157{fill:#f1ec71;}.cls-158{fill:#f8f5a2;}.cls-159{fill:#f7f38e;}.cls-160{fill:#e6e057;}.cls-161{fill:#929180;}.cls-162{fill:#8f8d6c;}.cls-163{fill:#d3cf5f;}.cls-164{fill:#868665;}.cls-165{fill:#fcfad0;}.cls-166{fill:#f9f596;}.cls-167{fill:#fcfac9;}.cls-168{fill:#fdfce9;}.cls-169{fill:#fdfbe0;}.cls-170{fill:#f8f378;}.cls-171{fill:#f8f483;}.cls-172{fill:#f8f487;}.cls-173{fill:#fcfaca;}.cls-174{fill:#fcfbd7;}.cls-175{fill:#fbf9c5;}.cls-176{fill:#fbf9bd;}.cls-177{fill:#eee963;}.cls-178{fill:#f9f58b;}.cls-179{fill:#f9f591;}.cls-180{fill:#fbf8b6;}.cls-181{fill:#faf8c1;}</style></defs><path class="cls-1" d="M261.22,104.31c10.73,21.84,10.95,44.16,3,66.86-.89,1.51-.93,3.9-3.65,3.52a5.38,5.38,0,0,1-2.1-1.83,2.1,2.1,0,0,1-.44-1.94,5.31,5.31,0,0,0,1.05-6.21c.3-6.41-1.42-12.71-.9-19.12a3.62,3.62,0,0,1,.85-1.42c2.81,0,2.22,2.4,2.58,4,1.56,6.66.69,13.5,1.37,18.54.46-21-2.34-43-15.39-62.47a11.42,11.42,0,0,1-1.29-2.68c-2.48-7.46-8.25-13.09-11.28-20.24-.83-1.93-3.93-4.16-1.43-6s4.17,1.57,6,3.06c2.3,1.93,3.1,5.51,6.69,6l11.92,14.88C259.53,100.77,260.08,102.72,261.22,104.31Z" transform="translate(-54.15 -48.31)"/><path class="cls-2" d="M241.24,221.13l-1-.13c-15.08,1.29-29.9,4.46-44.89,6.34-8.6.83-17.21,1.62-25.77,2.79a20.46,20.46,0,0,1-4.35.45c-3.75-.35-7.58.54-11.27-.7a1.53,1.53,0,0,1-.88-1.37,2.32,2.32,0,0,1,1.17-1.16c4.24-1.15,8.61-.06,12.88-.76a8.74,8.74,0,0,1,1.5-.4c2-.33,4.07-.25,6-.95a17.43,17.43,0,0,1,3.87-.41c4,.28,7.8-.65,11.62-1.54a11.69,11.69,0,0,1,2.34-.4c5.48.09,10.62-1.77,15.91-2.79,1.15-.38,2.62.28,3.54-1-.66-1.82-2.32-1.48-3.67-1.79-2.08-.2-3.69-1.83-5.82-1.85a10.09,10.09,0,0,1-2-.38,5.92,5.92,0,0,1-1.8-1c-1.57-1.61-3.58-1.57-5.61-1.45a46.24,46.24,0,0,0-6.9-2.68c-2-.73-4-1.33-6.09-2a98.6,98.6,0,0,0-14.13-3.82,12.87,12.87,0,0,0-6.22-.48,3.58,3.58,0,0,1-1.4-.32,23.56,23.56,0,0,0-2.53-1.56c-4.48-.2-8.85-1.39-13.36-1.34-1.64,0-3.89.31-4.1-2.42a4.23,4.23,0,0,1,2.45-.79c5.63-.06,11.25-.07,16.87,0a187.91,187.91,0,0,1,31.36,6.37c3.45,1,6.52,3.35,10.33,3.12,10.34,3.69,20.43,8.09,31.27,10.33,2.77.57,5.61.25,8.27,1.18C240.11,218.68,242.61,218.34,241.24,221.13Z" transform="translate(-54.15 -48.31)"/><path class="cls-3" d="M195.32,226.14c8-1.32,15.94-2.71,23.93-3.93,5.39-.82,10.81-1.52,16.23-2,1.54-.15,3.16.53,4.74.82l-1,1.13c-.71,1.34-1.44,2.66-3.12,3-2.61.57-5.31,0-7.92.65a11.31,11.31,0,0,1-1.39.35c-1.87.33-3.82.16-5.58,1.06a14.32,14.32,0,0,1-5.76,1.26c-1.93.05-3.88-.16-5.76.48a11.6,11.6,0,0,1-1.42.31c-2.34.32-4.74-.08-7.06.52a13,13,0,0,1-1.37.34c-1.84.3-3.74.22-5.53.88a8.49,8.49,0,0,1-1.4.29c-2.16.26-4.37,0-6.47.73a9.5,9.5,0,0,1-1.48.31c-2.28.25-4.63,0-6.84.82a11.77,11.77,0,0,1-2.44.35c-7.13.07-14.19,1-21.26,1.69a9.53,9.53,0,0,1-1.76.3c-20.64.32-41.29-.2-61.93.29-1.57,0-3.4-.59-4.57,1.16-3.59,2.72-6.83.14-10.08-.86-1.37-.42-1.53-2-.55-3.29A18.1,18.1,0,0,1,78.88,230a3.37,3.37,0,0,1,3.51.25c1.85,1.59,3.81.54,5.75.22a5,5,0,0,1,2.23.44c5.92,1.6,11.84,1.23,17.78.13,3.5-.4,7-.14,10.49-.24,14.94-.41,29.87-1.09,44.82-1.08a3,3,0,0,0,1.88-.53h3.93C177.94,228,186.74,228,195.32,226.14Z" transform="translate(-54.15 -48.31)"/><path class="cls-4" d="M54.62,227.13l.69-.9c2.53-2.88,6.25-4.1,9.12-6.5,3.94-2.25,7.67-4.89,12.11-6.16a192.23,192.23,0,0,1,19.86-8.24c1.45-.11,3.42-.6,3.82,1.12s-1.74,2-2.94,2.67c-1.85,1-4,1.4-5.72,2.72a35.07,35.07,0,0,1-6.65,3.87,27.05,27.05,0,0,0-4.09,2.16,12.07,12.07,0,0,1-2.32,1.25c-2.54.76-4.56,2.5-6.86,3.71a18.26,18.26,0,0,0-3.87,2.61c-.7.91.29,2-.29,2.93a3.7,3.7,0,0,1-1.23.75,37.24,37.24,0,0,1-10.33.13,4,4,0,0,1-1.47-.76A.81.81,0,0,1,54.62,227.13Z" transform="translate(-54.15 -48.31)"/><path class="cls-5" d="M226.85,65.29,229,67.52A18.7,18.7,0,0,1,234.31,73l0,0c-2,1.56-2,1.56-5.09-.57,3.42,6.2,7.82,11.82,9.85,18.74-1.1,2-3.17-1.44-4.25.78-4.38-2.89-7.69-6.55-8.38-12.1-.1-.68,2-.1.78-1.59-2.64-3.18-4.63-6.86-7.09-10.19-1.21-1.64-3.47-3.62-1.87-5.7,1.86-2.43,3.68.65,5.58,1A25.76,25.76,0,0,1,226.85,65.29Z" transform="translate(-54.15 -48.31)"/><path class="cls-6" d="M238.31,89.24,227.13,69.66l7.15,2.61c2.62,2.29,5.34,4.46,7.82,6.89a53.59,53.59,0,0,1,4.19,5.23c-.74,0-1.83.42-2.17.07-3.09-3.15-6.05-6.43-9-9.67l-1.59,1.28,13.8,24.16c-2.55.57-3.39-1.53-4.38-3C241.24,94.62,239.3,92.2,238.31,89.24Z" transform="translate(-54.15 -48.31)"/><path class="cls-7" d="M224.32,64.23l-5.51-2.07L231,80.33l-3.73-2.06c-2.56.44-3.34-1.72-4.5-3.19-5.8-7.38-11.42-14.92-18.17-21.52-.57-1-1.34-2.12-.19-3.13.84-.73,1.45.31,2.13.65l-.16.07c4.46,3.06,8.06,7.55,13.91,8.27l1.14.65C222.24,61.55,224.8,61.82,224.32,64.23Z" transform="translate(-54.15 -48.31)"/><path class="cls-8" d="M263.25,276.13c.54,9.21,1.58,18.43,1.48,27.64A71,71,0,0,1,254.23,340c-.91.95-1.08,3.3-3.31,1.76a2.63,2.63,0,0,1,.22-2.4c7.5-10.95,9.73-23.52,11.24-36.31a20.42,20.42,0,0,0,.11-9.52c-.41-1.64-.48-3.33-.76-5a31.66,31.66,0,0,0-.6-4.85,38.54,38.54,0,0,1-.09-4.43,5.35,5.35,0,0,1,.84-2.94A1,1,0,0,1,263.25,276.13Z" transform="translate(-54.15 -48.31)"/><path class="cls-9" d="M313.43,245.06c10.1,2.75,12.67,11.1,14.54,19.83.71,3.36.82,6.84,1.2,10.27-.7.7-.2,2.54-2.05,2.16-1.79-1.69-3.26-3.78-5.78-4.54a3.46,3.46,0,0,1-1.4-1.53,2,2,0,0,1,.24-1.34,2.92,2.92,0,0,1,1.93-.58c2.11,1.76,1.37-1.45,2.46-1.42-.53.42.65-.5.51.13-.05.24.78.28.74.14-1.61-6.45-3.69-12.68-8.81-17.33-1.23-1.12-2.53-2.14-3.71-3.3-.7-.69-1.47-1.37-1.17-2.54A1.1,1.1,0,0,1,313.43,245.06Z" transform="translate(-54.15 -48.31)"/><path class="cls-10" d="M199.23,207.24c-7.46-2-14.87-4.34-22.41-6.05-6.08-1.38-12.31-2-18.47-3a66.78,66.78,0,0,0-18,0l-2,0c-1.78,1.57-3.7,1.42-5.69.48a1.06,1.06,0,0,1-.32-1.5c19.47-2.68,38.37.07,56.94,6,3.31,1.05,6.63,2.06,10,3.09C199.85,206.57,199.85,206.9,199.23,207.24Z" transform="translate(-54.15 -48.31)"/><path class="cls-11" d="M325.28,186.24c-1.55,8.32-4.74,15.72-11.82,20.91-1.07.52-2,1.45-3.32,1.28-1.37-1-1.56-2.43-.3-3.32,7-5,9.59-12.8,13.2-20a3.67,3.67,0,0,1,1-1.09,1.48,1.48,0,0,1,1.43.06A2,2,0,0,1,325.28,186.24Z" transform="translate(-54.15 -48.31)"/><path class="cls-12" d="M305.2,191.08c2.2-2.62,4.15-5.54,6.67-7.81,4.27-3.85,8.91-7.29,13.4-10.9a1.84,1.84,0,0,1,.57,1.13,3.76,3.76,0,0,1-.27,1.29,12.3,12.3,0,0,1-1.75,2.8,24.82,24.82,0,0,1-2.35,2.35,55,55,0,0,0-7.5,6.56,6.38,6.38,0,0,1-2.31,1.27c-2.22.57-3.2,2.91-5.26,3.71A1.37,1.37,0,0,1,305.2,191.08Z" transform="translate(-54.15 -48.31)"/><path class="cls-13" d="M200.65,50.29l3.58-2,2.28,2.78L204.73,51c.19.72.39,1.43.59,2.14a27.7,27.7,0,0,1,3.89,9.42c.4,2.06.84,4.23-1.22,5.82-2.41-.32-2.35-2.5-3-4.1-1.26-3.25-1.79-6.75-3.32-9.91A9.7,9.7,0,0,1,200.65,50.29Z" transform="translate(-54.15 -48.31)"/><path class="cls-14" d="M220.26,59.42c-7,1.22-10.35-3.71-13.91-8.27C212.65,51.1,215.89,56.2,220.26,59.42Z" transform="translate(-54.15 -48.31)"/><path class="cls-15" d="M260.26,272.2l3-.06c0,1.33,0,2.66,0,4l-1,.08c-1.35,1.11-.72,2.78-1.17,4.15a2.65,2.65,0,0,1-.82,1,1.54,1.54,0,0,1-1.24-.28c-.83-1.68-1.41-3.65-3.91-3.48-1.63-.93-.91-1.89.12-2.57C256.81,274,258.67,273.33,260.26,272.2Z" transform="translate(-54.15 -48.31)"/><path class="cls-16" d="M310.18,208l3.28-.82c-3.13,1.71-6.09,4-9.43,5-5.35,1.57-6.73-.4-4.86-6a.94.94,0,0,1,1.17-.14,2.27,2.27,0,0,1,.41,1.25c0,1-.36,2.22,1.14,2.6,1.93.33,3.51-.5,5-1.47A3,3,0,0,1,310.18,208Z" transform="translate(-54.15 -48.31)"/><path class="cls-17" d="M300.22,206.14l-1.05,0,6-15,1.08,0a1.69,1.69,0,0,1,.29,1.25,34,34,0,0,0-2.7,6,22.09,22.09,0,0,0-1.7,5A4.26,4.26,0,0,1,300.22,206.14Z" transform="translate(-54.15 -48.31)"/><path class="cls-18" d="M304.26,245.05l1-1.85,8.15,1.86-1.2.21c-.49,1.24-2.87-.16-2.74,2-.52.91-1.07,1.79-1.64,2.66a1.67,1.67,0,0,1-1.1.62,1.62,1.62,0,0,1-1.05-.67,20.23,20.23,0,0,1-1.17-2.94A4.68,4.68,0,0,1,304.26,245.05Z" transform="translate(-54.15 -48.31)"/><path class="cls-19" d="M238.26,224.15l-9.9,9.93a1.72,1.72,0,0,1-.42-1.25c.91-2.45,2.86-3.87,4.3-5.79.89-1.28,2.26-1.79,3.36-2.75l2.66-2.16Z" transform="translate(-54.15 -48.31)"/><path class="cls-20" d="M64.53,220.24l-9.22,6" transform="translate(-54.15 -48.31)"/><path class="cls-21" d="M325.28,186.24l-.15-2.13c-1.83-2.51-.15-5,.11-7.45a2.4,2.4,0,0,1,1.5-1.67l.7.34Z" transform="translate(-54.15 -48.31)"/><path class="cls-1" d="M224.32,64.23l-2.92-4.16,5.89,5.17Z" transform="translate(-54.15 -48.31)"/><path class="cls-1" d="M234.26,72.25l-4.94-5Z" transform="translate(-54.15 -48.31)"/><path class="cls-10" d="M124.32,199.15l.06-.94,1.94-.09c1.78-.56,3.54-.85,5.24.23C129.46,201.47,127,200.91,124.32,199.15Z" transform="translate(-54.15 -48.31)"/><path class="cls-22" d="M261.22,104.31l-3-5Q259.71,101.79,261.22,104.31Z" transform="translate(-54.15 -48.31)"/><path class="cls-23" d="M131.36,198.22l-5-.1,6-1c0,.33,0,.66,0,1A.64.64,0,0,1,131.36,198.22Z" transform="translate(-54.15 -48.31)"/><path class="cls-21" d="M325.37,173.3c0-.31-.07-.62-.1-.93,2.82-.56,3.63.37,2.17,3l-.3-.22A23.24,23.24,0,0,1,325.37,173.3Z" transform="translate(-54.15 -48.31)"/><path class="cls-24" d="M238.31,89.24c1.8,2.33,3.55,4.69,5.4,7,1.12,1.39,2.38,2.68,3.58,4,2.34,4.35,4.74,8.67,7,13a78.83,78.83,0,0,1,9,33.15c.26,5.94.73,11.86.92,17.8a8.72,8.72,0,0,1-1.61,5l-3.27-25.14c-2.69-4.31-2.37-9.49-4.15-14.09-.88-2.29-1.38-4.74-2.46-7-.42-.89-.83-1.78-1.25-2.66a133.92,133.92,0,0,0-8-15c-1.82-3.9-4.57-7.21-6.77-10.86-.94-1.57-2.87-3-1.47-5.25Z" transform="translate(-54.15 -48.31)"/><path class="cls-25" d="M259.23,145.3q.56,10.42,1.1,20.85c.94,2.2.54,3.61-2.17,3.66a1.8,1.8,0,0,1-1.22-.95,3.11,3.11,0,0,1,.11-1.57c2.31-7.51-.3-14.81-1-22.2,0-3.15-1.77-6-1.76-9.13-.36-1.62-1-3.17-1.36-4.78-1.71-5-6.31-5.24-10.37-6.39-5.47-1.55-10.94-2.24-16.4-.06-.83,1.23-.35,2.5,0,3.76a5,5,0,0,1-.14,2.86,1.51,1.51,0,0,1-1.85,1,4,4,0,0,1-1-1.26,31.67,31.67,0,0,1-2.13-9.6c.13-4.11,2.95-4.66,6.17-4.7,4.33.22,8.68-.07,13,.19a6.15,6.15,0,0,1,1.59.32c2.18,1.51,4.72,1.7,7.25,2a4.64,4.64,0,0,1,2.6,1.51c1,1.18,1.57,2.6,2.46,3.83A105.08,105.08,0,0,1,259.23,145.3Z" transform="translate(-54.15 -48.31)"/><path class="cls-26" d="M256,172.35l-2.75-2.14-12.9-11.15-14-14.86c1.17-1.09,2.48-.26,3.73-.28,8.78,6.84,16.88,14.45,25.07,22,1,.93,1.4,2.23,2.18,3.29l.05,0c.51.6,1.4.94,1.3,1.94l.62,1.12c.6.74.64,1.68-.21,2C257.52,174.72,257.12,172.82,256,172.35Z" transform="translate(-54.15 -48.31)"/><path class="cls-27" d="M259.23,145.3l-6-21.07a1.41,1.41,0,0,1,0-2l6,21.94Z" transform="translate(-54.15 -48.31)"/><path class="cls-28" d="M256,172.35l3.29-.14,1.31,1.89-4.06.86Z" transform="translate(-54.15 -48.31)"/><path class="cls-29" d="M258.66,171.09l-1.3-1.94,3-3C262.43,168.69,260.79,170,258.66,171.09Z" transform="translate(-54.15 -48.31)"/><path class="cls-30" d="M131.36,197.25l1-.08,6,0c4.95.71,9.91,1.37,14.86,2.14a39.32,39.32,0,0,1,4.1,1.09c-2.75,2.31-5.91,1.39-8.91,1.12-1.78-.16-3.5-.77-5.27,0-4.79.85-9.69-.32-14.46.86-5.6.91-11.2,1.76-16.72,3.15-5.09,1.47-10.24,2.73-15,5.14a8.81,8.81,0,0,1-1.42.58c-1.7.36-3.41,1.44-5.09-.06L99.64,206l-3.34-.32,28-7.48Z" transform="translate(-54.15 -48.31)"/><path class="cls-31" d="M82.37,231.16l-3-1a3.87,3.87,0,0,1-4.8.35,1.29,1.29,0,0,1-.2-1.62A4,4,0,0,1,76,228c6.15-1.17,12.18.74,18.28.73q26.34-.06,52.67,0a22.71,22.71,0,0,1,6.42.43l12-.05c-3.16.67-6.3,1.83-9.47,1.93-16.17.51-32.34.75-48.51,1.08-6-.47-12.09,1.07-18-1h-2A5.45,5.45,0,0,1,82.37,231.16Z" transform="translate(-54.15 -48.31)"/><path class="cls-32" d="M153.35,229.19a26.24,26.24,0,0,1-4.73.89c-19,.06-37.91.11-56.87,0-5.79,0-11.57-.62-17.35-.95-2.43.39-4.89.93-7-.94v-.93c1.46-1.72,3.49-1.29,5.37-1.42.81,0,1.62,0,2.44,0s1.62,0,2.43.1a15.35,15.35,0,0,1,2.44.41c4.44,1,9,.08,13.43.6a8.84,8.84,0,0,1,1.77.37c15.69.52,31.36,1,47-.3,3.68-.31,7.58-1.32,11,1.13Z" transform="translate(-54.15 -48.31)"/><path class="cls-33" d="M158.45,203.06a6.54,6.54,0,0,1,.77,0c1.47-.76,2.54-.11,3.48,1,.64,3.43-.8,6.57-1.81,9.61a104.43,104.43,0,0,0-3.3,12.46,2.72,2.72,0,0,1-1.3.85,6.51,6.51,0,0,1-3.85-.32c-2.31-2-1.9-4.64-.59-6.74,2.36-3.8,3-7.92,3.33-12.19.15-1.87.72-3.54,2.52-4.52Z" transform="translate(-54.15 -48.31)"/><path class="cls-34" d="M180.33,207.14l6,2c4.09,1.33,5.33,4,3.8,8-.76,2-1.11,4.12-2.29,6a3.11,3.11,0,0,1-1.22.87c-2.17.37-4.21,1.63-6.53.92a2,2,0,0,1-1-1c1.52-2.75,2-5.82,2.9-8.79a5.91,5.91,0,0,0-1.72-6.64A1.65,1.65,0,0,1,180.33,207.14Z" transform="translate(-54.15 -48.31)"/><path class="cls-35" d="M187.32,223.16c.46-1.9.6-4,1.44-5.67,1.81-3.68.71-6.24-2.44-8.34l7,3a.91.91,0,0,1,1.34,0c2.49,4.11,1.44,7.71-1.57,11a4.31,4.31,0,0,1-1.44.49C190.2,223.5,188.62,224.66,187.32,223.16Z" transform="translate(-54.15 -48.31)"/><path class="cls-36" d="M153.34,228.16c-17.93.32-35.86.67-53.78.92a27,27,0,0,1-5.21-.91c2.4-2.17,5.36-1.11,8.08-1.42,4.62,0,9.25,0,13.87,0,7.9-.26,15.82.63,23.7-.54,2.64-.57,5.32-.37,8-.44,2.08-.25,3.93.9,6,1a.86.86,0,0,1,.34,1.39h-.48Z" transform="translate(-54.15 -48.31)"/><path class="cls-37" d="M192.32,223.16l2-11c1.93-1,3.34.61,5,1l1,1c2.84,3.69,1.11,6.26-2.07,8.47C196.29,223.09,194.4,224.29,192.32,223.16Z" transform="translate(-54.15 -48.31)"/><path class="cls-38" d="M192.32,223.16l6-1c4-1.34,5.75-3.79,4-8l6,2c1.71,1.39,3.74,2.71,1,5l-17,3c-.32-.22-.43-.44-.32-.66s.22-.33.33-.33Z" transform="translate(-54.15 -48.31)"/><path class="cls-39" d="M202.31,214.17l2.57,4.65-6.57,3.34c.67-2.66,1.34-5.33,2-8Z" transform="translate(-54.15 -48.31)"/><path class="cls-31" d="M195.32,226.14l-26,3c3.48-.62,6.94-1.42,10.44-1.8C184.9,226.77,190.12,226.52,195.32,226.14Z" transform="translate(-54.15 -48.31)"/><path class="cls-34" d="M178.29,226.14l-4,0c-1.85,1.25-4.16-.3-6,1h0c-2.11,1-4.33.3-6.49.43a1,1,0,0,1-.77-1.22c1-1.5,2.76-1.57,4.27-2.08a15.43,15.43,0,0,1,3.17-.45c1.84,0,3.68,0,5.52-.08,1.75.32,3.62-1,5.29.4h0a.84.84,0,0,1,.34,1C179.31,225.6,178.72,225.76,178.29,226.14Z" transform="translate(-54.15 -48.31)"/><path class="cls-33" d="M143.27,201.14l14,.06c.38.63.75,1.25,1.13,1.86l-.13.12a6.62,6.62,0,0,1-2.19,1c-3.19,0-6.29-.78-9.45-1.08C145.41,202.66,144.1,202.33,143.27,201.14Z" transform="translate(-54.15 -48.31)"/><path class="cls-40" d="M209.31,221.16c-.33-1.66-.67-3.33-1-5,.33,0,.75-.13,1,0,1.48,1,2.92,2,4.37,3.07Z" transform="translate(-54.15 -48.31)"/><path class="cls-41" d="M180.33,207.14v1l-.58.31c-2,.12-3.81-.94-5.75-1.22-1.28-.27-2.53-.68-3.81-.94a25.92,25.92,0,0,1-3.83-1.15,3.69,3.69,0,0,1-1.11-.77,1.24,1.24,0,0,1,.1-1.26Z" transform="translate(-54.15 -48.31)"/><path class="cls-30" d="M140.32,198.16h0Z" transform="translate(-54.15 -48.31)"/><path class="cls-32" d="M161.33,227.15h7l-14,1c0-.32.07-.64.09-.95a3.2,3.2,0,0,1,2.31-.53C158.29,226.26,159.91,225.75,161.33,227.15Z" transform="translate(-54.15 -48.31)"/><path class="cls-32" d="M178.29,226.14l1-1c2.36-.41,4.65-1.16,7-1.48,1.33.15,2.74-.39,4,.49Z" transform="translate(-54.15 -48.31)"/><path class="cls-42" d="M165.34,203.14v1a2.12,2.12,0,0,1-3,0l-3.1-1.09Z" transform="translate(-54.15 -48.31)"/><path class="cls-38" d="M199.31,213.17l-5-1-1,0Z" transform="translate(-54.15 -48.31)"/><path class="cls-37" d="M190.32,224.17h-4q-.49-.33-.33-.66c.11-.23.22-.34.33-.34h6c0,.33,0,.66,0,1Z" transform="translate(-54.15 -48.31)"/><path class="cls-32" d="M168.33,227.16l6-1Z" transform="translate(-54.15 -48.31)"/><path class="cls-43" d="M233.29,227.16l-5,5a1.61,1.61,0,0,1-2.1.09,2.48,2.48,0,0,1,.44-2.09c.36-1.71-.76-1.42-1.75-1.25-13.41,2.26-26.91,3.87-40.33,6.08-4.76.78-9.58,1-14.36,1.34-18.2,1.32-36.41,2.86-54.71,2.24-1.92-.06-4-.33-6.1,1.07,3.54,3.13,6.4,6.76,10.7,8.76,1.17.55,2.52,1.08,2.4,2.79-3.53,2.33-6.78.32-10.1-.62a11.44,11.44,0,0,0-5.39-2.89,6.23,6.23,0,0,1-1.39-1,21.47,21.47,0,0,0-6.55-4.47,20.06,20.06,0,0,1-4.3-2.49,3.66,3.66,0,0,1-1.5-4c.49-1.8,2.19-1.11,3.38-1.11,14.79,0,29.57,0,44.36-.07,4.1,0,8.26.68,12.33-.48h1c7.32-.72,14.7-.86,22-2h2c2.2-1.29,4.81.36,7-1h1c2.2-1.3,4.81.35,7-1h1c1.84-1.26,4.16.3,6-1h0c2.55-1.33,5.47.38,8-1h1c1.85-1.25,4.16.3,6-1l6-1c1.85-1.25,4.16.3,6-1h0C229.41,225.48,232.79,222,233.29,227.16Z" transform="translate(-54.15 -48.31)"/><path class="cls-44" d="M112.35,249.15l10,2a7.64,7.64,0,0,1,2.78,0,20.49,20.49,0,0,0,5.62.72,18.18,18.18,0,0,1,3.83.4c2.39.78,4.86.44,7.3.55a49.48,49.48,0,0,0,12.14,1c1.78,0,3.62-.15,5.17,1a1.2,1.2,0,0,1,0,1.63c-4,2-8.36.67-12.53,1.08a32.94,32.94,0,0,1-7-.46c-4.92-.81-9.87-1.51-14.85-1.91-3.09-.78-6.22-1.43-9.37-1.9-5-1.42-10-2.72-14.92-4.2a191.91,191.91,0,0,0-17.92-7A10.63,10.63,0,0,1,78,240.3a17,17,0,0,0-3-1.67c-3.31-1.79-6.8-3.18-10.25-4.67-1.84-.8-4.22-1.18-4.38-3.93a2.84,2.84,0,0,1,1.43-.75c4.23.24,8.56-1.12,12.67.87h5c-3.58,5.13-3.46,5.38,3.56,6.91a12.38,12.38,0,0,0,2.44.08c3-2.07,4.87.74,7,1.77,5.13,2.45,9.9,5.61,15,8.23h0C109,247.88,111,247.77,112.35,249.15Z" transform="translate(-54.15 -48.31)"/><path class="cls-45" d="M107.36,247.15c-6-2.83-12-5.68-18-8.48-1.29-.6-2.67-1-4-1.52-1.13-4,2-2.93,3.79-3,10.45-.09,20.89,0,31.34,0h32.84a28.57,28.57,0,0,1-5.18,1c-16.81.07-33.61,0-50.42.08a17,17,0,0,0-3.58.76,17.75,17.75,0,0,0,2.72,3.48C100.28,242.11,103.85,244.59,107.36,247.15Z" transform="translate(-54.15 -48.31)"/><path class="cls-44" d="M89.37,231.16l18,1C101.28,233.29,95.18,234.86,89.37,231.16Z" transform="translate(-54.15 -48.31)"/><path class="cls-45" d="M176.33,232.16l-22,2Z" transform="translate(-54.15 -48.31)"/><path class="cls-45" d="M233.29,227.16l-6-2,9-1Z" transform="translate(-54.15 -48.31)"/><path class="cls-45" d="M208.31,228.16l-8,1Z" transform="translate(-54.15 -48.31)"/><path class="cls-45" d="M193.32,230.16l-7,1Z" transform="translate(-54.15 -48.31)"/><path class="cls-45" d="M185.32,231.16l-7,1Z" transform="translate(-54.15 -48.31)"/><path class="cls-45" d="M200.31,229.16l-6,1Z" transform="translate(-54.15 -48.31)"/><path class="cls-44" d="M82.37,231.16h0Z" transform="translate(-54.15 -48.31)"/><path class="cls-45" d="M215.31,227.16l-6,1Z" transform="translate(-54.15 -48.31)"/><path class="cls-45" d="M227.3,225.16l-6,1Z" transform="translate(-54.15 -48.31)"/><path class="cls-46" d="M90.4,211.27l5-1.13c.59,1-.07,1.71-.72,2.38-.91.62-2,.92-2.93,1.47-1.16.81-2.69,1-3.64,2.16,2,4.27,6.26,5.73,10,6,8.7.54,17.24-.49,23.34-8.19a20.92,20.92,0,0,0,4.31-8.27c1.54-2.51,4.26-2.59,6.7-3.28,2.21-.11,3.69.35,2.55,3.08a49,49,0,0,1-16.34,20.78c-3,2.19-6.82.23-10.15,1.23a33.63,33.63,0,0,1-5.31.16,7.71,7.71,0,0,1-1.5-.32c-2.59-.31-5.19-.09-7.78-.16H85.82a26.73,26.73,0,0,1-4.56-.19,28.47,28.47,0,0,0-3.44-7.6,1.86,1.86,0,0,1,.55-1.2l1.87-1.07c1.42-.57,3.05-.73,4.1-2Z" transform="translate(-54.15 -48.31)"/><path class="cls-47" d="M78.37,218.16v1c-1.87,2.1-2.15,4.32-.51,6.69a1.56,1.56,0,0,1-.52,1.22h-2a6.6,6.6,0,0,0-3.27-.94c-1.11-.07-2.51,0-2.75-1.43s1.2-1.79,2-2.55Z" transform="translate(-54.15 -48.31)"/><path class="cls-31" d="M67.38,228.18l7,.94-.05.07c-4.57,1.27-9.33-.37-13.89.91l-.1.09a3.15,3.15,0,0,1-1.16.77,4.05,4.05,0,0,1-2.76-.28c-.82-.58-1.41-1.27-1-2.37Z" transform="translate(-54.15 -48.31)"/><path class="cls-48" d="M71.37,222.14c-.32,1.21-3.17,3.06.93,3.13,1,0,2,1.16,3.08,1.79l-2,.08c-1.66-1-3.48-.27-5.21-.5-.9-.13-2.07.09-1.78-1.47Z" transform="translate(-54.15 -48.31)"/><path class="cls-36" d="M66.39,225.17l7,2-6,.11Z" transform="translate(-54.15 -48.31)"/><path class="cls-49" d="M55.44,228.31l1,1.81a2.22,2.22,0,0,1-2.13,1c0-1,.11-2,.16-3C54.8,228.18,55.12,228.24,55.44,228.31Z" transform="translate(-54.15 -48.31)"/><path class="cls-47" d="M84.34,215.05l-4.1,2Q82.28,216.07,84.34,215.05Z" transform="translate(-54.15 -48.31)"/><path class="cls-50" d="M159.4,255.17l-18.06-1c-.67-.48-1.5-.83-1.54-1.84,1.49-4.89,4.69-7.54,9.81-8.6,12.48-2.57,25.19-3.81,37.62-6.59,9.43-3,19.53-2.69,28.93-5.84a14,14,0,0,1,4.42-.45c1.39,0,3.34-.8,3.93,1,.71,2.19-1,3.22-2.83,3.88-15.25,1.69-30.06,5.69-45.11,8.44-6.4,1.17-12.41,3.73-18.84,4.67-2.56.38-4.18,2.69-7.43,4a132.53,132.53,0,0,0,53.88-10.62c1.82-.78,3.52-1.92,5.62-1.88a3.06,3.06,0,0,1,1.4.52c.69,3.29-3.44,2.09-4,4.25l-1.91.8c-2.56,1.55-5.65,1.74-8.22,3.23l-.54.1c-2.77.77-5.62,1.31-8.17,2.75-1.92.1-3.66,1-5.57,1.18-5.51,1.64-11.2,2.31-16.86,3.14C163.71,256.61,161.36,256.89,159.4,255.17Z" transform="translate(-54.15 -48.31)"/><path class="cls-51" d="M129.47,257.21a4.09,4.09,0,0,1-.29-.48,4.94,4.94,0,0,1,3.25-.66c3.56-.1,7.06.34,10.61.36,5.52.57,11,.17,16.53-.14a14.46,14.46,0,0,1,4.31.08c.59.2.74.48.44.84Z" transform="translate(-54.15 -48.31)"/><path class="cls-52" d="M159.4,255.17l23.95-2.9a.91.91,0,0,1-.13,1.19c-.44.11-.87.24-1.3.39-1.81.89-4.09.59-5.63,2.18l-1.88.24c-2.33.81-4.83,0-7.15.76-2.67-.4-5.43,0-8-1C159.29,255.77,159.34,255.47,159.4,255.17Z" transform="translate(-54.15 -48.31)"/><path class="cls-53" d="M182.31,253.18c.32,0,.65-.06,1-.08,1.43-1.34,3.44-1.19,5.09-2l8.19-1.9-14.2,5a.62.62,0,0,1-.28-.67C182.15,253.3,182.23,253.18,182.31,253.18Z" transform="translate(-54.15 -48.31)"/><path class="cls-54" d="M197.1,249.11l8.22-3.22Z" transform="translate(-54.15 -48.31)"/><path class="cls-55" d="M207.23,245.08l4.11-3.89a2.15,2.15,0,0,1,3.18,0,7.7,7.7,0,0,0-.22.95Z" transform="translate(-54.15 -48.31)"/><path class="cls-56" d="M182.31,253.18c0,.34,0,.68.05,1L176.29,256Z" transform="translate(-54.15 -48.31)"/><path class="cls-57" d="M235.27,89.29c2.27,3.72,4.57,7.41,6.77,11.17.89,1.51,1.54,3.17,2.3,4.76-3.3.28-3.62-2.91-5.3-4.52-1.8-3-4.22-4.4-7.9-3.48-3,.77-6.27.16-9.41.72-3.31.59-4.58,2.06-3.43,5.42.52,1.55.35,3.29.92,4.88.36,1.52.6,3.07,1.09,4.56.12,2.42,1.2,5.1-1.8,6.67-4-2.76-3.41-7.33-4.08-11.22-.88-5.06-1.42-10.15-3.28-15-.23-1.93.07-3.9-.32-5.82a9.94,9.94,0,0,1-.33-1.33,26.45,26.45,0,0,0-.82-4.56,10,10,0,0,1-.35-1.3A27.75,27.75,0,0,0,207.39,73c-.19-1.58-1.66-3.24.27-4.68-.33-3.14-.58-6.29-1-9.41-.28-1.92-.86-3.8-1.31-5.7q9.45,11,18.92,21.91c.95,1.1,2,2.12,3,3.18Z" transform="translate(-54.15 -48.31)"/><path class="cls-58" d="M260.24,281.05a4,4,0,0,1,.05-.92c.55-.52.8-1.61,1.92-.95l0,4.94c-.78,1.8-.24,3.65-.16,5.48a6.4,6.4,0,0,1-.26,1.44c-3.14,14.1-6.22,28.26-13.39,41A258.62,258.62,0,0,1,231.75,358a30.76,30.76,0,0,0-4.54,8.25,9.53,9.53,0,0,1-3.85,3.73c-1.1.57-2,2.16-3.45,1.36-1.71-1-.72-2.61-.47-4,3.7-8.36,9.24-15.63,14-23.36a46.94,46.94,0,0,0,3.06-6.25c3.21-4.21,6.75-8.24,7.83-13.68a5.79,5.79,0,0,1,.61-1.28c3.09-3.47,4.34-7.79,5.62-12.1a180.13,180.13,0,0,0,4.94-18.11,5.68,5.68,0,0,1,.73-1.32C258.66,288.27,257.43,283.86,260.24,281.05Z" transform="translate(-54.15 -48.31)"/><path class="cls-59" d="M251.29,342.09l-2,3a47.44,47.44,0,0,0-3,4.06l0,0c-3.73,3.59-6.34,8.43-11.58,10.33-2.17-2.12-.24-3.53.91-5,5.78-7.47,11.56-14.94,15.54-23.61,3.55-7.73,5.44-16,7.84-24.08.51-1.73.73-3.6,2.19-4.91,1.05-.15,2.23-.51,2,1.29-.78,13.31-3.4,26-11.44,37.12A6,6,0,0,0,251.29,342.09Z" transform="translate(-54.15 -48.31)"/><path class="cls-60" d="M261.29,302.11c-3.74,19.76-11.11,37.83-24.56,53.12-.84,1-1,2.55-1.43,3.84-.44,3-2.4,4.25-5.25,4.42-2-2.88.63-4.51,1.88-6.32,7.86-11.5,16.21-22.69,21.08-35.94a177,177,0,0,0,8.28-31.1h0c.64-.5.31-1.49,1-2l1,5C264.54,296.54,262.86,299.31,261.29,302.11Z" transform="translate(-54.15 -48.31)"/><path class="cls-61" d="M261.29,302.11q1-4.5,2-9,0,5,0,10Z" transform="translate(-54.15 -48.31)"/><path class="cls-62" d="M262.21,279.18l-1.92.95c.64-1.31,1.29-2.61,1.93-3.92C262.22,277.2,262.21,278.19,262.21,279.18Z" transform="translate(-54.15 -48.31)"/><path class="cls-62" d="M262.27,288.15c-.33.65-.65,1.31-1,2,.32-2,.63-4,.95-6Z" transform="translate(-54.15 -48.31)"/><path class="cls-63" d="M309.2,247.19c.78-.53-5.08-2.89.58-2.1.81.11,1.63.12,2.45.17,9.18,6.35,14.37,14.86,13.87,26.45-.61-1.2-1.22-2.4-1.84-3.6a4.07,4.07,0,0,1-1.58-1.78,22.19,22.19,0,0,1-1-2.15,14,14,0,0,0-1.16-2.7,11,11,0,0,1-1-1.57,7,7,0,0,0-2.1-3.08,51.89,51.89,0,0,0-5.91-5.95C310.8,249.63,308.9,249.09,309.2,247.19Z" transform="translate(-54.15 -48.31)"/><path class="cls-64" d="M307.84,261.25q-1.36-2.49-2.75-5c-.75-2-1-4.11-1.91-6v0a2.1,2.1,0,0,1-.05-2.21c2.37-1.24,2.32,1.17,3.23,2.14l0-.06c1.27,1.35,1.72,3.16,2.59,4.73,1,2.21,2.11,4.39,3.25,6.54a28.88,28.88,0,0,0,2.75,3.68,40,40,0,0,0,5.34,6.14l1.22,1c1.46,1.45,4.4,1.52,4.19,4.52-1.72,2.35-3.05-.15-4.57-.37l-8.91-8.95C310.73,265.29,309.85,262.87,307.84,261.25Z" transform="translate(-54.15 -48.31)"/><path class="cls-65" d="M322.28,264.09l1,2a2.67,2.67,0,0,1-1,4l-2.31.1c-1.72-.41-3.13-1.09-2.69-3.28C319.17,266.42,321.23,266.13,322.28,264.09Z" transform="translate(-54.15 -48.31)"/><path class="cls-66" d="M317.14,267.16l2.81,3.06c.1.31.2.62.31.93l-6-5.92a1.2,1.2,0,0,1,1.09-.39A2.79,2.79,0,0,1,317.14,267.16Z" transform="translate(-54.15 -48.31)"/><path class="cls-67" d="M325.35,276.05l-3.87-3.95,5.78,4.85a1.3,1.3,0,0,1-.76.25C325.73,277.21,325.59,276.58,325.35,276.05Z" transform="translate(-54.15 -48.31)"/><path class="cls-68" d="M322.25,271.36l1-5.38,1,2.68Z" transform="translate(-54.15 -48.31)"/><path class="cls-69" d="M220.31,367.13l-.37,4.51,6.37-5.56c.55-.7,1-1.55,2.07-1.54a1.69,1.69,0,0,1,1.13.64l-8.27,7.7-1.68.34-.82-.31c-2.62-2.34-1.48-5.49-1.82-8.33.43-5.05-.95-10.21,1-15.16a1.08,1.08,0,0,1,1.59-.17C222.06,355.1,220.52,361.15,220.31,367.13Z" transform="translate(-54.15 -48.31)"/><path class="cls-70" d="M230.3,363.07l5-4,11.06-10-16.85,16.07-.34-.15C228.81,364,229.56,363.51,230.3,363.07Z" transform="translate(-54.15 -48.31)"/><path class="cls-70" d="M246.33,349.15l3-4.06Z" transform="translate(-54.15 -48.31)"/><path class="cls-71" d="M310.18,208l-3,1.38c-2.28.07-5.38,2.77-6.17-1.93,2.09-2.25,5.1-3.35,7.14-5.67,1.32-1.4,3-2.43,4.18-4a4.36,4.36,0,0,1,1.58-1.11,4.18,4.18,0,0,0,2.46-2.93,27.49,27.49,0,0,1,2.42-4.78,10.08,10.08,0,0,1,.9-1.06c1.34-1.51,1.82-3.54,3-5.12.44-.57,1-.91,1.64-.33a1.2,1.2,0,0,1-.1,1.76c-3.24,8.09-5.72,16.66-13.89,21.61C310,206,310.23,207.23,310.18,208Z" transform="translate(-54.15 -48.31)"/><path class="cls-72" d="M324.27,184.2c0-.16,0-.35-.07-.47a5.67,5.67,0,0,0-.56-.65l-3.6,6a3.8,3.8,0,0,1-.83-2.67c.09-2,1.19-3.49,2.18-5.06.35-.56.74-1.1,1.11-1.65a18,18,0,0,1,2.56-3.75,1.08,1.08,0,0,1,1.18.27l-1.11,7.91A6.27,6.27,0,0,1,324.27,184.2Z" transform="translate(-54.15 -48.31)"/><path class="cls-73" d="M228.43,298.46l4.35-6c.95,1.71.14,3.28-.4,4.87a14.5,14.5,0,0,1-1.53,2.92c-1.46,1.64-2,3.75-3.07,5.63a8,8,0,0,1-.92,1.39c-4,5.85-4.65,12.66-7.53,19,.68,4.15-1.29,4.8.58,6.69.14.12-1.23-.79-1.14-.62-3.1,26.91,2.41,23.17.69-9.19C223.63,313.23,224.2,308.32,228.43,298.46Z" transform="translate(-54.15 -48.31)"/><path class="cls-74" d="M82.36,241.2l18.15,6.88a2.39,2.39,0,0,1-2.08.9,7.5,7.5,0,0,1-2.22-.72L82.3,243.5l.09-.4A1.23,1.23,0,0,1,82.36,241.2Z" transform="translate(-54.15 -48.31)"/><path class="cls-75" d="M123.24,256.21l-11.85-2.09c0-.3-.1-.61-.15-.91a2.29,2.29,0,0,1,1.27-.86c1.06-.2,2,.3,3.09.34,3.05.7,6.15,1.17,9.19,1.95,1.21.5,3.5-1.16,3.48,1.76A8.71,8.71,0,0,1,123.24,256.21Z" transform="translate(-54.15 -48.31)"/><path class="cls-76" d="M112.38,253.05l-1.14.16-15-5,2.14-.09c4.22,1.09,8.46,2.07,12.6,3.43C111.73,251.86,112.56,251.91,112.38,253.05Z" transform="translate(-54.15 -48.31)"/><path class="cls-77" d="M322.25,181.17l-2,5c-.94,2.61-2.66,4-5.54,3.46-2.27-.39-2.62-1.6-1.47-3.45l7.9-7.07C323,179,322.93,179.94,322.25,181.17Z" transform="translate(-54.15 -48.31)"/><path class="cls-78" d="M313.27,186.19c1.28,3.37,3.3,3.37,7,0-.08,1-.16,1.92-.23,2.89a5.58,5.58,0,0,0-.82.11c-4,4.61-7.06,4.45-8.78-.47a3.14,3.14,0,0,1,.87-1.49Z" transform="translate(-54.15 -48.31)"/><path class="cls-79" d="M311.32,187.22c0,.31-.06.62-.06.94a28.53,28.53,0,0,0-1.5,2.56c-.72,1-1.25,2.18-2.44,2.77a1.76,1.76,0,0,1-1.25-.2.79.79,0,0,1,.16-1.11c0-.35,0-.7,0-1.06Z" transform="translate(-54.15 -48.31)"/><path class="cls-21" d="M325.27,176.2l-2,4a2.45,2.45,0,0,1,0-3l2-3A1.38,1.38,0,0,1,325.27,176.2Z" transform="translate(-54.15 -48.31)"/><path class="cls-80" d="M323.2,177.16c0,1,0,2,0,3l-1,1c-.36-.68-.72-1.36-1.07-2Z" transform="translate(-54.15 -48.31)"/><path class="cls-81" d="M325.27,176.2c0-.68,0-1.37,0-2a5,5,0,0,1,.14-.86l1.77,1.82-.9,1.09h-1Z" transform="translate(-54.15 -48.31)"/><path class="cls-82" d="M207.66,68.29c.25,1.61.49,3.23.74,4.85a4.47,4.47,0,0,1,.31,2.86,1.37,1.37,0,0,1-1.23.53c-1.08-1.25-.65-3.21-2.06-4.3-.06-.63-.12-1.26-.19-1.89-1.08-1.53.37-3.56-1-5l0,0a50.81,50.81,0,0,0-3-9l-1.12-1.89c-.14-1.84.77-1.71,2-1.06Z" transform="translate(-54.15 -48.31)"/><path class="cls-83" d="M201.32,56.27c1,3,2,6,3,9C203.29,62.27,202.31,59.27,201.32,56.27Z" transform="translate(-54.15 -48.31)"/><path class="cls-83" d="M202.17,53.32l-2,1.06.45-4.09Z" transform="translate(-54.15 -48.31)"/><path class="cls-84" d="M204.25,65.31c.33,1.68.66,3.35,1,5l-.82-.28C204.35,68.47,204.3,66.89,204.25,65.31Z" transform="translate(-54.15 -48.31)"/><path class="cls-85" d="M325.35,276.05l1.15,1.15c-2.53,3.84-3.73.09-5.4-.95Z" transform="translate(-54.15 -48.31)"/><path class="cls-86" d="M307.84,260q2.12,3.57,4.22,7.14l-2.77-2.76C308.81,262.89,308.33,261.43,307.84,260Z" transform="translate(-54.15 -48.31)"/><path class="cls-87" d="M207.39,76.18c.31,0,.62.06.92.08,2.44.91.68,3.6,2.1,4.94h0c1.07,1.52-.37,3.56,1,5h0c1.08,1.9-.36,4.19.93,6.06q3.21,13.41,6.4,26.82c1.23,1.71,2.74,3.32,2.21,5.72-1.24,1.61,0,4-1.68,5.48q-2-5-4-10-1.51-8.47-3-16.94c-1.06-1.56.33-3.59-1-5.09v0c-1-3.27-.73-6.83-2.34-10l-.7-4.88C208.2,81,206.54,78.73,207.39,76.18Z" transform="translate(-54.15 -48.31)"/><path class="cls-83" d="M207.39,76.18q.42,3.63.82,7.28l-2.79-11.23C206.08,73.55,206.74,74.86,207.39,76.18Z" transform="translate(-54.15 -48.31)"/><path class="cls-88" d="M208.91,88.34l2.34,10-.89-.16C209.88,94.87,209.4,91.6,208.91,88.34Z" transform="translate(-54.15 -48.31)"/><path class="cls-89" d="M219.25,130.27l1-5.09c2.91,1.15,1.63,4.27,2.92,6.18,1.64,4,4.15,7.58,6.34,11.32a1.83,1.83,0,0,1-.08,1.34l-3.1.18-1.05-.82-4.06-8.06c-.67-1.69-1-3.51-2-5.07Z" transform="translate(-54.15 -48.31)"/><path class="cls-90" d="M219.46,323.11l-.33-1c1-2.7,1.94-5.39,2.92-8.09a1.28,1.28,0,0,1,1.37-.11,3.36,3.36,0,0,1,.74,1.28c.32,2.85-.73,5.32-2.12,7.7a2.42,2.42,0,0,1-1.25.75A1.85,1.85,0,0,1,219.46,323.11Z" transform="translate(-54.15 -48.31)"/><path class="cls-91" d="M227.67,300.17l1.59-1c1.44-.22,1.56.67,1.7,1.56-.3,1.48-.3,3.09-2.2,3.86a2.14,2.14,0,0,1-1.38-.3C227.47,302.92,227.57,301.55,227.67,300.17Z" transform="translate(-54.15 -48.31)"/><path class="cls-92" d="M223.2,314.1l-1.15-.11,4.16-8a2,2,0,0,1,1.41,1.16,2.61,2.61,0,0,1-.12,1.27,7.68,7.68,0,0,1-1,1.66C225.29,311.33,224.87,313.23,223.2,314.1Z" transform="translate(-54.15 -48.31)"/><path class="cls-91" d="M227.1,307.14l-.89-1.17,1-1a1.7,1.7,0,0,1,.59,1.15A1.42,1.42,0,0,1,227.1,307.14Z" transform="translate(-54.15 -48.31)"/><path class="cls-93" d="M227.34,306.17l-.12-1.24a4.15,4.15,0,0,0-.15-.7l1.38-.06C228.92,305.3,228.89,306.15,227.34,306.17Z" transform="translate(-54.15 -48.31)"/><path class="cls-94" d="M219.25,130.25l2,5.07Z" transform="translate(-54.15 -48.31)"/><path class="cls-88" d="M211.25,98.27l1,5.09Z" transform="translate(-54.15 -48.31)"/><path class="cls-95" d="M245.23,281l6.08-3.88c.72,1.3-.68,2.21-.62,3.39a4.82,4.82,0,0,1-2,2.27,15.86,15.86,0,0,1-1.48,1.11,15.91,15.91,0,0,0-3.37,2.75c-.77.77-1.54,1.54-2.29,2.32-1.76,1.21-2.63,4-5.54,3.15-.3-4.26,4-5.15,5.77-7.91C242.8,282.93,244.15,282.08,245.23,281Z" transform="translate(-54.15 -48.31)"/><path class="cls-96" d="M250.28,280.14c.34-1,.68-2,1-3.06l8.95-4.88-5,4.94c0,2.48-2.39,2.33-3.72,3.33A1.35,1.35,0,0,1,250.28,280.14Z" transform="translate(-54.15 -48.31)"/><path class="cls-97" d="M81.37,243.17l-5-3.07c-.14-1.62.65-1.57,1.74-1l4.21,2.07,0,1.9Z" transform="translate(-54.15 -48.31)"/><path class="cls-98" d="M230.29,300l-1.18-2.08q2.53-3.46,5.08-6.94c1.5-.35,1.48.8,1.69,1.71a14.2,14.2,0,0,1-1.94,4.63C232.85,298.38,232.53,300.5,230.29,300Z" transform="translate(-54.15 -48.31)"/><path class="cls-99" d="M235.25,293l-1.06-2,7-6.93,1.11.07-6.06,8C236.44,293.07,236.15,293.42,235.25,293Z" transform="translate(-54.15 -48.31)"/><path class="cls-100" d="M123.24,256.21l5.1-.1a3.07,3.07,0,0,1,3.72-.41,1,1,0,0,1,.41,1.36l-3.29.18Z" transform="translate(-54.15 -48.31)"/><path class="cls-101" d="M251.25,280.11l4-3c5.34-2.7,3.61,1.72,4,4a30,30,0,0,1-2.11,11c-.24.05-.48.08-.72.11a1.14,1.14,0,0,1-1.28.13c-1.22-1.43-.94-3-.4-4.59C256.07,284,254.67,281.61,251.25,280.11Z" transform="translate(-54.15 -48.31)"/><path class="cls-62" d="M257.18,292.09q1.05-5.47,2.11-11a6.09,6.09,0,0,0,.95-.08Z" transform="translate(-54.15 -48.31)"/><path class="cls-102" d="M302.21,207.13c.12,2.06.12,2.06,5,2.22l-5.89,1.82a2.7,2.7,0,0,1-1-4c0-.33,0-.66,0-1l1.1-3c1-.21,1.38.38,1.69,1.14A2.74,2.74,0,0,1,302.21,207.13Z" transform="translate(-54.15 -48.31)"/><path class="cls-103" d="M300.26,207.13c.34,1.35.69,2.7,1,4C298.41,210.48,298.93,208.91,300.26,207.13Z" transform="translate(-54.15 -48.31)"/><path class="cls-104" d="M219.46,323.11l.87,0c1.43,1.61,1.3,3.55,1.17,5.5a9.77,9.77,0,0,1-.29,1.6c-1.22,1.83.48,5.11-2.89,5.89,0-1.72,0-3.43-.08-5.14C218.65,328.36,219.05,325.74,219.46,323.11Z" transform="translate(-54.15 -48.31)"/><path class="cls-105" d="M227.56,229.67h2.28c0,.55.07,1.11.11,1.67l-1.31,2.23L222,237.9a5.07,5.07,0,0,1-3.86.86,2.09,2.09,0,0,1-1.06-1.36c.52-2.21,2-2.86,3.62-3.23C224.13,235.26,225.16,230.92,227.56,229.67Z" transform="translate(-54.15 -48.31)"/><path class="cls-50" d="M214.52,241.18h-3.18l-.05-.07c.68-3.59,2.77-4.35,5.93-3h.14c.55,1.15-.62,1.51-1,2.22Z" transform="translate(-54.15 -48.31)"/><path class="cls-55" d="M216.33,240.38l1-2.22h4Z" transform="translate(-54.15 -48.31)"/><path class="cls-16" d="M306.23,192.18l.15,1c1.07,1.75.2,3.26-.58,4.78a1.87,1.87,0,0,1-2,.61l-.6-.42Z" transform="translate(-54.15 -48.31)"/><path class="cls-106" d="M302.32,204.22l-1-1c.64-1.67,1.27-3.33,1.91-5h.08C304.62,200.48,305.55,202.69,302.32,204.22Z" transform="translate(-54.15 -48.31)"/><path class="cls-107" d="M303.34,248.15c-.06.68-.11,1.36-.17,2-1.31-2.07-1.91-4,1.09-5.14l.79,1.2C304.82,247.19,304,247.56,303.34,248.15Z" transform="translate(-54.15 -48.31)"/><path class="cls-107" d="M303.18,250.22c.64,2,1.28,4,1.91,6l-.79-.22Q303.75,253.13,303.18,250.22Z" transform="translate(-54.15 -48.31)"/><path class="cls-108" d="M309.2,247.19l2.95,3a4,4,0,0,0-2.93,2.31,2.51,2.51,0,0,1-1.38.13c-1-.59-1.35-1.33-.61-2.36S308.55,248.21,309.2,247.19Z" transform="translate(-54.15 -48.31)"/><path class="cls-66" d="M303.34,248.15l1.71-1.9c.43,1.29.86,2.58,1.3,3.87Z" transform="translate(-54.15 -48.31)"/><path class="cls-66" d="M307.23,250.25l.94,1.92a2,2,0,0,1,.13,3l-2-5.1C306.63,250.13,306.93,250.2,307.23,250.25Z" transform="translate(-54.15 -48.31)"/><path class="cls-109" d="M54.31,231.15l2.13-1,2.93.18a1.61,1.61,0,0,1,0,2.48l0,.47L54.44,232A2.93,2.93,0,0,1,54.31,231.15Z" transform="translate(-54.15 -48.31)"/><path class="cls-110" d="M219.29,112.24l-1-4a2.37,2.37,0,0,1-.42-.88c-.6-7.45-.61-7.53,6.72-8.75,5.34-.88,10.81-2.25,15.69,1.64l4.05,5,8,15a1,1,0,0,1-1.19.2,8.35,8.35,0,0,1-2.55-3.07c-.75-1.86-2.22-3.27-3.18-5a8.13,8.13,0,0,1-.49-1.27c-3.46-7.53-10.5-5.24-16.42-6-.48-.06-1,.26-1.46.23-4.62-.3-6.93,1.94-7.22,6.45Z" transform="translate(-54.15 -48.31)"/><path class="cls-111" d="M251.3,120.22h1l1,2c0,.68,0,1.36,0,2l-2-3c-.3-.22-.4-.45-.3-.67S251.19,120.22,251.3,120.22Z" transform="translate(-54.15 -48.31)"/><path class="cls-112" d="M255.3,136.21c.66,2.66,1.31,5.33,2,8-3.2.8-4.64-2.22-7-3.21a12.44,12.44,0,0,1-1.12-.78c-5.83-3.78-11.85-6.85-19.15-5.37a3.71,3.71,0,0,1-2.9-.23,3.13,3.13,0,0,1-1.27-3.41c-.1-3.37,2.5-2.39,4.25-2.54C239.45,127.87,247.58,131.37,255.3,136.21Z" transform="translate(-54.15 -48.31)"/><path class="cls-113" d="M255.3,136.21c-1.48-.3-3.27-.17-4.39-1-7.3-5.19-15.61-5.46-24-5.25-.2,0-.38.8-.58,1.22s-.65.45-1,0c0-1,0-2,0-3-1.12-2.32.59-2.52,2.06-2.51,4.24,0,8.4-1.21,12.65-.77a9.77,9.77,0,0,1,4.33,1.18c2.11,1,4.16,2.19,6.27,3.24,1.26.54,2.69.77,3.67,1.86Z" transform="translate(-54.15 -48.31)"/><path class="cls-114" d="M251.3,120.22c0,.33,0,.67,0,1l-2-1c-2.06-1.62-4.85-.67-7-2h-1a29,29,0,0,0-14,0c-2.89-.19-5.63-.19-5,4-3.08-.55-2.33-2.93-2.37-4.94.5-1.24.28-2.82,1.72-3.61a65.51,65.51,0,0,1,23,.18,6.69,6.69,0,0,1,4.62,3.36Z" transform="translate(-54.15 -48.31)"/><path class="cls-115" d="M229.43,144a5.18,5.18,0,0,1-.11-.87,2.38,2.38,0,0,1-.44-2.68,1.43,1.43,0,0,1,1.21-.57c2,1.27,3.08,3.4,4.9,4.82,4.23,4.86,9.45,8.6,14.47,12.56a18.27,18.27,0,0,0,2.53,2.11,9.45,9.45,0,0,1,2.36,2.36c1,2.12,4.24,3.13,3.12,6.29-.05.38-.11.76-.16,1.13Z" transform="translate(-54.15 -48.31)"/><path class="cls-116" d="M244.29,127.22l-4-1c-2.82-1-5.73-.48-8.6-.35-2.64.11-5.16,0-7.39-1.65,3-.67,6-2.15,8.86-1.83a85.93,85.93,0,0,1,16.66,3.73c1.85.6,3,3.34,4.46,5.1l-4-1A11.81,11.81,0,0,0,244.29,127.22Z" transform="translate(-54.15 -48.31)"/><path class="cls-117" d="M257.47,168l-4-5.87a2.19,2.19,0,0,1,1.85-.59c2.79-.3,1.65-2.39,1.47-3.71-.34-2.41-.7-4.82-.89-7.24-.6-2.19-2.88-3-3.9-4.85s-3.11-3.12-1.69-5.57l7,4c.67,6.37,1.48,12.73,1.91,19.12C259.28,164.86,258.07,166.47,257.47,168Z" transform="translate(-54.15 -48.31)"/><path class="cls-110" d="M220.34,117.22l2,5q1,4.48,2,9c-.4.56-.79,1.12-1.62.85l-2.45-6.87-1.53-6.11.57-6.83,0,0a.93.93,0,0,1,1.38.28A7.85,7.85,0,0,1,220.34,117.22Z" transform="translate(-54.15 -48.31)"/><path class="cls-118" d="M224.3,124.22l16,2c-4.67.2-9.34.38-14,.68-.36,0-.66.86-1,1.32C225,126.89,224.63,125.55,224.3,124.22Z" transform="translate(-54.15 -48.31)"/><path class="cls-119" d="M222.7,132.05l1.62-.85c0,.33.08.66.13,1,1.54.92,2.4,2.49,3.62,3.73a5.72,5.72,0,0,1,1.21,4.38c0,.95,0,1.9,0,2.85Z" transform="translate(-54.15 -48.31)"/><path class="cls-120" d="M227.3,118.22c4.67-2.14,9.33-2.37,14,0Z" transform="translate(-54.15 -48.31)"/><path class="cls-120" d="M242.29,118.22l7,2Z" transform="translate(-54.15 -48.31)"/><path class="cls-118" d="M227.25,136.3l-2.8-4.11.87-1,1,0,1,3a1.48,1.48,0,0,1,.54,1.05A1.61,1.61,0,0,1,227.25,136.3Z" transform="translate(-54.15 -48.31)"/><path class="cls-121" d="M94.36,212.17c.33-.68.67-1.36,1-2a1.39,1.39,0,0,1,.81,0c6.41-2.16,12.79-4.45,19.57-5.23a5.57,5.57,0,0,1,4.39-1.08,2.09,2.09,0,0,1,1.39,2.49,3.81,3.81,0,0,1-1.19,1c-4.9,2.15-8.44,6.94-14.39,7.1C101.88,214.47,97.73,215.54,94.36,212.17Z" transform="translate(-54.15 -48.31)"/><path class="cls-122" d="M116.36,205.18l-20.18,4.91,15.15-4.94A5.94,5.94,0,0,1,116.36,205.18Z" transform="translate(-54.15 -48.31)"/><path class="cls-123" d="M116.36,205.18l-5,0,17-3.05c.1.21.21.42.32.63a1.47,1.47,0,0,1-.77,1.11c-1.32.6-2.54,1.45-4.06,1.45a5.8,5.8,0,0,1-3.48-1.09Z" transform="translate(-54.15 -48.31)"/><path class="cls-48" d="M143.27,201.14l3.07,1-.63.61c-2.22,1.09-4.6.64-6.93.77-3.35-1.4-7.07.18-10.41-1.29l0-.15Z" transform="translate(-54.15 -48.31)"/><path class="cls-3" d="M60.46,230.1l13.89-.92,0,1Z" transform="translate(-54.15 -48.31)"/><path class="cls-36" d="M93.38,228.14l-14-.95c1.89-1,3.93-.3,5.89-.52,2.58.05,5.16-.09,7.73.09A.89.89,0,0,1,93.38,228.14Z" transform="translate(-54.15 -48.31)"/><path class="cls-48" d="M93.38,228.14c0-.32,0-.64,0-1a2.16,2.16,0,0,1,1.56-.5c2.48.24,5-.55,7.46.48h0c.32.21.44.42.34.63s-.21.33-.31.33l-8,0C94,228.17,93.7,228.16,93.38,228.14Z" transform="translate(-54.15 -48.31)"/><path class="cls-48" d="M85.41,227.09l-6.07.1-2-.12c0-.31,0-.63,0-.94a2.14,2.14,0,0,1,3,0h5c.32.19.44.39.35.6S85.51,227.09,85.41,227.09Z" transform="translate(-54.15 -48.31)"/><path class="cls-48" d="M156.33,203.17h2a31.86,31.86,0,0,0-1.92,5.45c-.64,3.76-.44,7.56-3.05,11-1.18,1.55-.73,4.34-1,6.57-1.14,1.08-2.85-.12-4,1l-8,0c0-.24-.08-.48-.13-.72a3,3,0,0,1,2.39-1.4c4-.42,4.38-4.19,5.74-6.76a25.59,25.59,0,0,0,2.62-8A8.68,8.68,0,0,1,156.33,203.17Z" transform="translate(-54.15 -48.31)"/><path class="cls-124" d="M162.33,204.17h4a2.28,2.28,0,0,1,1.15,2.94c-1.92,6-4,11.87-5.75,17.89-.17.61-.9.94-1.37,1.39a3.26,3.26,0,0,1-3-.24c-.07-1.56-.54-3.23-.15-4.67C158.75,215.68,160.59,209.94,162.33,204.17Z" transform="translate(-54.15 -48.31)"/><path class="cls-124" d="M148.34,227.14l4-1h4c.33.22.43.44.32.66s-.22.33-.33.33l-2,0Z" transform="translate(-54.15 -48.31)"/><path class="cls-36" d="M156.33,227.15c0-.33,0-.66,0-1h4c.34-.4.68-.42,1,0,0,.33,0,.66,0,1Z" transform="translate(-54.15 -48.31)"/><path class="cls-41" d="M179.32,224.16l-5,1c.05-4.79,2.29-9.15,2.67-13.88.15-1.93,1.64-2.69,3.33-3.1h0c3.49.72,4.38,2.82,3.1,6C182.08,217.5,180.69,220.82,179.32,224.16Z" transform="translate(-54.15 -48.31)"/><path class="cls-35" d="M186.32,223.16v1l-7,1v-1Z" transform="translate(-54.15 -48.31)"/><path class="cls-48" d="M140.35,227.17c-4.53.33-9.06.76-13.6,1-3.46.15-6.94,0-10.42,0a.9.9,0,0,1,.37-1.37c1.94-.2,3.74-1.2,5.75-1,1.69.06,3.38,0,5.07,0,2.3,0,4.61,0,6.91-.07,2,.25,4.25-.31,5.9,1.44Z" transform="translate(-54.15 -48.31)"/><path class="cls-47" d="M116.37,227.17c0,.32,0,.64,0,1H102.39q0-.48,0-1h6A14,14,0,0,1,116.37,227.17Z" transform="translate(-54.15 -48.31)"/><path class="cls-125" d="M161.34,226.16h-1c2.16-6.69,4.33-13.38,6.42-20.09.16-.53-.27-1.25-.42-1.88l4,1c1.56,1.83.69,3.86.22,5.71-1.24,4.93-2.17,10-5.21,14.28Z" transform="translate(-54.15 -48.31)"/><path class="cls-36" d="M180.32,208.17c-1.33,4.1-2.62,8.22-4,12.3-.55,1.6-1.32,3.12-2,4.68h-6c2.56-6.15,3.36-12.86,6-19Z" transform="translate(-54.15 -48.31)"/><path class="cls-42" d="M174.32,206.18c-.71,6.73-1.37,13.48-6,19h-3q2.49-10,5-20Z" transform="translate(-54.15 -48.31)"/><path class="cls-112" d="M156.33,203.17c-1.89,3.87-3.82,7.72-5.66,11.61-1.31,2.77-3.15,5.51-3.55,8.43-.49,3.62-2.64,2.89-4.78,2.95-2.53-3.71-.92-7.27,1.39-9.88,3.05-3.43,2.84-7.92,4.94-11.56.28-.49-.95-.53-1.45-.85-.66-.38-1.15-.85-.88-1.7h0Z" transform="translate(-54.15 -48.31)"/><path class="cls-5" d="M124.35,252.13l-2-1-17.8-12.57c4-.59,6.8-1.33,9.61-1.37,11.09-.16,22.23.49,33.27-.28,14.47-1,28.89-2.92,43.3-4.71,11.78-1.47,23.52-3.36,35.29-4.95,1.2-.17,2.49.38,3.73.6l-2.45,3.28c-6.4-1.82-12.43.81-18.51,1.83a515.23,515.23,0,0,1-54.24,6.56c-1.84.11-3.55.86-5.39.87a225.48,225.48,0,0,0-30.08.82c.6,2.91,2.72,4.21,3.88,6.09C123.87,248.8,125.72,250,124.35,252.13Z" transform="translate(-54.15 -48.31)"/><path class="cls-126" d="M148.34,239.15c13-1.33,26-2.41,38.93-4.08,11.45-1.48,22.81-3.74,34.25-5.38,1.82-.26,3.85.94,5.78,1.46l-1,1-6,4c-.2-.87,0-1.39,1-1,.95-.83,1.91-1.65,3.47-3h-8.46c-15,3.09-30.11,5.45-45.29,7.46-5.73.76-11.41,1.84-17.18,2.33-1.68.15-3.28.45-4.8-.53l-.63-.62A1.41,1.41,0,0,1,148.34,239.15Z" transform="translate(-54.15 -48.31)"/><path class="cls-45" d="M112.35,249.15l-5-2Z" transform="translate(-54.15 -48.31)"/><path class="cls-127" d="M148.34,240.15c4.38-.06,8.81.28,13.13-.27,13.57-1.73,27.09-3.79,40.64-5.72l14.2-2c-5,1.27-10,2.72-15,3.78-4.61,1-9.32,1.49-14,2.21-13.69,2-27.31,4.5-41,6.17-1,.12-2,.25-3,.46-5.43,1.17-6.34,3.75-3,8.36l1,1-7-1c-4.34-.94-4.82-4.61-5.18-8-.31-2.85,2.05-3.91,4.48-4.22C138.52,240.35,143.4,239.62,148.34,240.15Z" transform="translate(-54.15 -48.31)"/><path class="cls-126" d="M148.34,240.15c-4.12.66-8.26,1.23-12.35,2a53.18,53.18,0,0,0-5.81,1.78c.9,2.64,1.75,5.3,2.74,7.91.2.53.93.86,1.42,1.29l-4,0a14.63,14.63,0,0,1-8.3-8.12c-1-2.57-.53-5.16,2.53-5.19,7.92-.08,15.86-.78,23.76.34Z" transform="translate(-54.15 -48.31)"/><path class="cls-128" d="M148.34,240.15c-6.82,0-13.64-.09-20.46.06-1.69,0-3.36.84-5,1.29.56,1.59.8,3.4,1.73,4.73,1.71,2.45,3.83,4.61,5.78,6.89l-6-1c-2.11-2.88-4.24-5.74-6.34-8.63-.52-.73-1.47-1.72-1.28-2.27a3,3,0,0,1,2.18-1.66c9.81-.23,19.62-.3,29.43-.42Z" transform="translate(-54.15 -48.31)"/><path class="cls-129" d="M59.4,232.78l0-2.48a2.75,2.75,0,0,1,1-.11L75.63,238c-1.43,1.72-2.86-.79-4.28,0Z" transform="translate(-54.15 -48.31)"/><path class="cls-130" d="M167.41,256.19l-3.06,1c-5.44.3-10.89.68-16.34.85a24.17,24.17,0,0,1-4.76-.8c.79-1,2.19-.13,3.05-1l12.94-.18Z" transform="translate(-54.15 -48.31)"/><path class="cls-131" d="M112.38,253.05l-14-4.88,2.16-.08,14.9,4.07c.31.24.4.47.29.7s-.23.32-.34.32Z" transform="translate(-54.15 -48.31)"/><path class="cls-132" d="M132.28,256.17l-3.93-.06-4-1a.7.7,0,0,1-.25-.74c.08-.25.16-.37.25-.37l15.11,2.07A11,11,0,0,1,132.28,256.17Z" transform="translate(-54.15 -48.31)"/><path class="cls-133" d="M124.37,254v1.11l-9-1.92c0-.34,0-.68,0-1Z" transform="translate(-54.15 -48.31)"/><path class="cls-134" d="M132.28,256.17l7.2-.11,6.82.19-3.05,1-10.78-.15A5.42,5.42,0,0,1,132.28,256.17Z" transform="translate(-54.15 -48.31)"/><path class="cls-135" d="M71.35,238h4.28l2.52,1.1-1.74,1L72.48,239Z" transform="translate(-54.15 -48.31)"/><path class="cls-136" d="M116.37,227.17l-8,0c.25-.21.49-.62.74-.62,14.57-.21,19.23-11.58,24.77-21.95.18-.34.15-1.14-.07-1.28s-.95-.1-1.45-.12a3.93,3.93,0,0,1-4,0c0-.31,0-.61,0-.92l11-.06c.55.44,1.35.67,1.32,1.59a53.37,53.37,0,0,1-10.24,18.55c-2.21,2.54-4.46,4.74-8.07,4.83Z" transform="translate(-54.15 -48.31)"/><path class="cls-137" d="M126.35,206.17c.26,5.15-3.58,7.86-6.58,11.08-7.16,7.72-23.76,8.38-31.84,1.94-2-1.59-2.13-2.28-.56-4,1.25-.49,2.28.19,3.24.76,11.33,6.85,24.88,2.73,31.51-7.93a7.83,7.83,0,0,1,1.56-1.93,3.2,3.2,0,0,1,1.37-.5A2.07,2.07,0,0,1,126.35,206.17Z" transform="translate(-54.15 -48.31)"/><path class="cls-138" d="M124.35,206.17c-5.62,13.74-24.38,19.39-37,9l4-2c2.21,0,3.71,1.65,5.64,2.31,7.92,2.75,17,0,20.33-6.28.58-1.43,1.88-2.15,3-3h1A2.08,2.08,0,0,1,124.35,206.17Z" transform="translate(-54.15 -48.31)"/><path class="cls-139" d="M120.35,206.17l-2,3c-5.48,8.12-13.38,8.67-22,7l-5-3,3-1c8,2.07,15.54,2,22-4.27C117.3,207,119,206.73,120.35,206.17Z" transform="translate(-54.15 -48.31)"/><path class="cls-47" d="M80.38,226.15l-3,0c-3-2.8-3.76-5.29,1-7,.72.84,1.28,2,2.19,2.45C84.29,223.37,82.89,224.73,80.38,226.15Z" transform="translate(-54.15 -48.31)"/><path class="cls-138" d="M126.35,206.17h-1c-.53-.56-1.61-.83-1-2l4-1h4Z" transform="translate(-54.15 -48.31)"/><path class="cls-47" d="M85.41,227.09c0-.31,0-.62,0-.93h9c.33.22.44.43.33.65s-.21.32-.32.32l-1,.05Z" transform="translate(-54.15 -48.31)"/><path class="cls-136" d="M94.37,227.13c0-.32,0-.65,0-1l8,1Z" transform="translate(-54.15 -48.31)"/><path class="cls-140" d="M221.3,235.15l-1,1-3.07,2-5.93,3c-7,2.52-13.93,5.26-21,7.49a121.56,121.56,0,0,1-39.66,5.5,20.42,20.42,0,0,1-3.44-.64c3-2.09,5.6-4.56,8.66-5.8a74.18,74.18,0,0,1,12.74-3.37c12.62-2.64,25.24-5.28,37.91-7.63C211.34,235.77,216.35,235.63,221.3,235.15Z" transform="translate(-54.15 -48.31)"/><path class="cls-141" d="M140.34,253.14c-1.32-1.08-3.89-2.45-3.72-3.17.5-2.09,1.77-5.21,3.33-5.61,5.06-1.29,10.38-1.52,15.59-2.21,7.16-1,14.31-2,21.47-2.94,3.42-.45,6.87-.71,10.31-1.06-8.79,1.67-17.58,3.37-26.39,5-4.51.82-9.39.68-13.46,2.44C144.55,246.84,142.68,250.53,140.34,253.14Z" transform="translate(-54.15 -48.31)"/><path class="cls-142" d="M188.37,251.11l-5.09,2c0-.28.05-.56.07-.83Z" transform="translate(-54.15 -48.31)"/><path class="cls-143" d="M240.29,100.24c-6.85.12-13.7.2-20.55.46-.5,0-1.27,1.31-1.36,2.07a52.27,52.27,0,0,0-.08,5.46c-.64-2.66-1.61-5.3-1.74-8-.05-1,1.81-2.7,3-2.92,5-.93,10.07-1.92,15.08-1.79C236.57,95.57,238.41,98.58,240.29,100.24Z" transform="translate(-54.15 -48.31)"/><path class="cls-144" d="M210.41,81.2l-2.1-4.94.09-3.12Z" transform="translate(-54.15 -48.31)"/><path class="cls-144" d="M212.32,92.25l-.93-6.06Z" transform="translate(-54.15 -48.31)"/><path class="cls-144" d="M211.4,86.2l-1-5Z" transform="translate(-54.15 -48.31)"/><path class="cls-145" d="M220.31,367.13l-1.05-18.08c0-.25-.08-.49-.13-.74.22-2.58-1.22-5.58,1.85-7.45,1.39.55,1.45,2.05,2.18,3.07,1.93,2.68,4.46,2.91,7.28,1.59,1.26-.59,2.17-2.09,3.89-1.42Q227.31,355.6,220.31,367.13Z" transform="translate(-54.15 -48.31)"/><path class="cls-62" d="M230.3,363.07c-.38.65-.75,1.31-1.12,2l-2.87,1.05c2.74-4.81,5-10,8.31-14.37a140.62,140.62,0,0,0,25.61-58.93,14.23,14.23,0,0,1,1.06-2.65A96.56,96.56,0,0,1,251,327.63c-5.48,10.86-12.69,20.83-19.07,31.24A23.22,23.22,0,0,0,230.3,363.07Z" transform="translate(-54.15 -48.31)"/><path class="cls-146" d="M234.33,344.1c-2,1.27-4,3.52-6.08,3.59-4,.15-7.41-1.5-6.94-6.61a4.75,4.75,0,0,1-1.26-3.82c.26-1.25.13-2.6.73-3.79,1.56-1.35,1.88.11,2.4,1.08.75,1.43-.26,4.15,2.51,4.09,3.12-.05,6.35,2.63,9.38-.28a3.08,3.08,0,0,1,.86-.5,1.44,1.44,0,0,1,1.33.22C236.28,340.09,235.3,342.09,234.33,344.1Z" transform="translate(-54.15 -48.31)"/><path class="cls-147" d="M237.26,338.08l-1,0c-3.4,1.41-6.84.37-10.23,0-2.66-.26-3.35-2.33-3.31-4.7s1.55-1.21,2.75-1.08c4.24.49,8.57,2.53,12.63-.57a28.06,28.06,0,0,1,3-3.25,11.5,11.5,0,0,0,1.3-2.08,7.28,7.28,0,0,1,1.77-2.63.92.92,0,0,1,1.12.29Q241.31,331.11,237.26,338.08Z" transform="translate(-54.15 -48.31)"/><path class="cls-148" d="M245.34,324.12h-1c-6.33,2.42-12.58,1.65-18.81-.47a3.19,3.19,0,0,1-1-1.32,8.45,8.45,0,0,1,.24-5.76,1.37,1.37,0,0,1,1.29-.74c1,.48,1.27,1.48,1.64,2.4,4.51,3.55,9.35,1.81,14,.67,2-.48,3.74-1.36,5.64,0,.61,2-1.09,3.11-1.92,4.54A1.43,1.43,0,0,1,245.34,324.12Z" transform="translate(-54.15 -48.31)"/><path class="cls-149" d="M255.3,292.13l1.16.07q-2.53,9.48-5.06,19a1.7,1.7,0,0,1-2,.22c-1-2.23.92-4,.92-6.12C252.14,301,252,295.87,255.3,292.13Z" transform="translate(-54.15 -48.31)"/><path class="cls-150" d="M249.29,311.11l2.11,0-6,12.26,1.89-4.31c-1-1-.51-2.12-.24-3.22s.7-2.13,1.09-3.18A3.16,3.16,0,0,1,249.29,311.11Z" transform="translate(-54.15 -48.31)"/><path class="cls-151" d="M309.27,252.14c-.46-2.73,1.18-2.39,2.88-2l6.07,6a2.49,2.49,0,0,1,.58,2.2c-3.41,3.63-5.6,0-8.18-1.36C309.37,255.63,308.35,254.15,309.27,252.14Z" transform="translate(-54.15 -48.31)"/><path class="cls-108" d="M311.25,256.16l7,2c1.89-.64,1.07,1.68,2.12,2l.8,1a3.13,3.13,0,0,1-1.39.95C313.35,262.57,311.23,261.1,311.25,256.16Z" transform="translate(-54.15 -48.31)"/><path class="cls-152" d="M320.27,261.14c.31,0,.62,0,.93,0l1.08,3c.68,5-2.41,3.74-5.14,3.07l-1.94-2c1.16-1.49,3.64.45,4.5-1.75A4.25,4.25,0,0,1,320.27,261.14Z" transform="translate(-54.15 -48.31)"/><path class="cls-153" d="M320.4,260.1l-2.12-2-.06-1.93Q319.31,258.15,320.4,260.1Z" transform="translate(-54.15 -48.31)"/><path class="cls-153" d="M320.27,261.14l1,2c-3.7,4-6.45.54-9.42-1.22l-3.52-6.75c-.05-1-.09-2-.13-3l1.1,0,2,4C312.38,261.23,316.23,261.36,320.27,261.14Z" transform="translate(-54.15 -48.31)"/><path class="cls-154" d="M311.82,261.91l9.42,1.22c-.64,4.76-3.76,2.14-6,2a4.45,4.45,0,0,0-1,.08C313.43,264.12,312.63,263,311.82,261.91Z" transform="translate(-54.15 -48.31)"/><path class="cls-155" d="M218.32,336.12c.65-2,1.31-4,2-6.05,1.71,2.19-.08,4.63.5,6.9-1.19,3.95-.66,8.11-1.46,12.1l-.07,0-.87.18c-1.44-1.21-.58-2.73-.57-4.13.22-2-.49-4.08.47-6Z" transform="translate(-54.15 -48.31)"/><path class="cls-156" d="M218.27,345.14l.12,4.09q-.06,7.9-.11,15.83a.87.87,0,0,1-1.39-.56c.11-6.13-.58-12.28.39-18.4,0-.33.05-.67.07-1C217.67,344.65,218,344.63,218.27,345.14Z" transform="translate(-54.15 -48.31)"/><path class="cls-155" d="M217.3,365.12l1-.06.81,7.88c-3.31.43-2.67-1.95-2.75-3.83C217.4,368,216.24,366.27,217.3,365.12Z" transform="translate(-54.15 -48.31)"/><path class="cls-157" d="M305.24,198.05l1.14-4.83.92,0c1.12,2.66,4,3.24,5.9,5l-4,4c-1.26.72-2.77,1.85-4,.77C303.7,201.56,304.15,199.67,305.24,198.05Z" transform="translate(-54.15 -48.31)"/><path class="cls-158" d="M309.28,190.22l2-2.06c1.3,3.94,3.07,4.17,8,1l-2,5a7.14,7.14,0,0,1-1.54,1C309.34,195.87,308.36,195.12,309.28,190.22Z" transform="translate(-54.15 -48.31)"/><path class="cls-159" d="M309.28,190.22c-.46,6.29,4.45,3.15,7.07,4,.29,1.68-1,2.25-2.07,3l-1.08.9c-3.05-.37-6.5-.26-5.9-5Z" transform="translate(-54.15 -48.31)"/><path class="cls-160" d="M305.24,198.05c-.36,3,0,5.31,4,4.09l-7,5c0-1,.07-1.95.11-2.92l1-6Z" transform="translate(-54.15 -48.31)"/><path class="cls-72" d="M314.28,197.24l2.07-3a6.55,6.55,0,0,0,.89-.1Z" transform="translate(-54.15 -48.31)"/><path class="cls-161" d="M217.3,365.12l-1,4c0-6.11-.08-12.23,0-18.34a26.41,26.41,0,0,1,.92-4.67Q217.3,355.61,217.3,365.12Z" transform="translate(-54.15 -48.31)"/><path class="cls-162" d="M218.27,345.14a5.79,5.79,0,0,0-.93,0q.48-3,.95-6C218.28,341.1,218.28,343.12,218.27,345.14Z" transform="translate(-54.15 -48.31)"/><path class="cls-163" d="M220.29,337.09v-7a2.71,2.71,0,0,0,0-.9c1.24-1.88-.2-4.17.93-6.06q1-4,2.09-8a.9.9,0,0,1,1.35.28c.42,3-.21,5.83-.48,8.74-.88,3-.44,6.45-2.86,9l-.06,4C221,337.54,220.64,337.55,220.29,337.09Z" transform="translate(-54.15 -48.31)"/><path class="cls-93" d="M224.48,315.17l-1.14-.05c0-.34-.09-.68-.14-1l3-5.06c1.47,2,.32,3.91-.41,5.8A1,1,0,0,1,224.48,315.17Z" transform="translate(-54.15 -48.31)"/><path class="cls-164" d="M221.25,323.11l-.93,6.06c0-2,0-4,0-6C220.64,323.11,221,323.1,221.25,323.11Z" transform="translate(-54.15 -48.31)"/><path class="cls-165" d="M230.29,300l3-2.95a2.15,2.15,0,0,1,.65,1.87c-.16,1.12-.58,2.17-.71,3.29,1.44,3.77,4.31,2,6.08,1,5-2.79,9.85-6.83,8.71-14.72-.26-1.8-.56-3.6-.79-5.41l1-1c4-1,5,2.11,5.5,4.7,1.61,8.95-5.44,22.08-15.45,22.35-3.54.1-7.3,3.33-10.73-.36-.11-.23-.23-.47-.34-.71a2.39,2.39,0,0,0-.14-.95l.24-1c.37-.67.74-1.33,1.1-2Q229.37,302.08,230.29,300Z" transform="translate(-54.15 -48.31)"/><path class="cls-166" d="M225.3,315.09l.93-6,1-1,.21.06a4,4,0,0,1,.8,2,16.58,16.58,0,0,1-1.06,4.87,2.83,2.83,0,0,1-.89,1.11l-.92,0c-.35-.21-.48-.44-.39-.68S225.19,315.09,225.3,315.09Z" transform="translate(-54.15 -48.31)"/><path class="cls-167" d="M227.42,310.12l0-2c6,2.6,16.7-.6,20.44-6,2.49-3.61,4.61-7.08,4.74-11.9.12-4.05-.68-6.6-4.37-8.13.68-.65,1.35-1.31,2-2,.32,0,.65,0,1,0,4,0,6.36,3.26,5.13,6.88a41.47,41.47,0,0,0-1.08,5.14q-2,6.48-4,13c-4.38,5.29-10.29,7.44-16.86,8.32C231.32,313.84,228.85,313.12,227.42,310.12Z" transform="translate(-54.15 -48.31)"/><path class="cls-137" d="M247.22,283.09c3.22,3.66,3,8.47,1.57,12-2.08,5.36-6.46,9.6-12.72,10.41-1.69.22-5.63,1.08-3.78-3.43,1.58-1,3.44-1,5.16-1.48,6.73-1.93,9.51-9,5.76-14.53Z" transform="translate(-54.15 -48.31)"/><path class="cls-168" d="M233.3,299.12c0-.69,0-1.38,0-2.07q1-2,2-4.07l1-.82,4.95-4.07c2.05-1,2.77.36,3.08,1.89a7.9,7.9,0,0,1-2.51,7.67c-2.22,2.05-4.74,3.63-8,2.7C233.18,300.18,233.31,299.59,233.3,299.12Z" transform="translate(-54.15 -48.31)"/><path class="cls-169" d="M233.3,299.12c6.09.65,10.74-3.37,9.89-8.73-.13-.85-1.28-1.54-2-2.3l2-2c3.73-.34,3.38,2.67,3.43,4.72.13,5.43-5.05,10.79-10.56,11.28-1.26.11-2.53,0-3.8,0C232.63,301.11,233,300.11,233.3,299.12Z" transform="translate(-54.15 -48.31)"/><path class="cls-170" d="M220.3,112.23h-1a22.22,22.22,0,0,1,.12-5c.25-1.07,1.38-2.73,2.17-2.76,6-.25,12.2-.84,18.08.12,2.5.41,4.42,4.31,6.6,6.62-6.57-1.84-13.26-.23-19.88-.63C224.14,110.46,222.38,111.88,220.3,112.23Z" transform="translate(-54.15 -48.31)"/><path class="cls-171" d="M220.3,112.23c1.74-1,3.39-2.64,5.23-2.88a98.48,98.48,0,0,1,15.25-.88c1.86,0,3.67,1.79,5.5,2.76v1c-2.28,2.08-4.94,1.26-7.52,1a50.94,50.94,0,0,0-17.45,1c-.33,1-.65,2-1,3C220.33,115.56,220.31,113.89,220.3,112.23Z" transform="translate(-54.15 -48.31)"/><path class="cls-172" d="M221.31,114.23c.77-.52,1.52-1.46,2.31-1.49,7.55-.26,15.1-.36,22.66-.51l3,5c-7.47-4.25-15.66-2.71-23.63-2.92C224.22,114.26,222.76,114.25,221.31,114.23Z" transform="translate(-54.15 -48.31)"/><path class="cls-123" d="M227.33,135.21c0-.33,0-.66,0-1h3c7.63-1.22,13.76,2.54,20,6h0l7,10c-1.17,1.9-2.42,1.26-3.69.13-5.46-7.41-12.45-12.05-22-12.18a4.15,4.15,0,0,1-2.25-.94C228.62,136.62,228,135.87,227.33,135.21Z" transform="translate(-54.15 -48.31)"/><path class="cls-117" d="M250.29,140.21c-4.46-1.49-8.9-3.05-13.39-4.45-2.15-.67-4.4-1-6.6-1.55,2.92,0,6.09-.77,8.69.13C243,135.7,246.54,138.19,250.29,140.21Z" transform="translate(-54.15 -48.31)"/><path class="cls-118" d="M244.29,127.22l6,3Z" transform="translate(-54.15 -48.31)"/><path class="cls-173" d="M229.3,136.21c4.09,1,8.15,2,12.26,2.87,6.41,1.29,9.46,6.3,12.73,11.12,1.92,2.77,2.22,6,2.49,9.19.09,1.07.57,2.72-1.49,2.81l-1.84,0-2.15-2c1.1-10.92-9-17.13-16.74-18.38-.05,0-1.24-.94-.47.33a8.42,8.42,0,0,1,.74,1.27,2,2,0,0,1-.58,2l-4-5C229.51,139,228.16,137.92,229.3,136.21Z" transform="translate(-54.15 -48.31)"/><path class="cls-174" d="M234.25,145.32l0-2.11c1.69-3.43,4.37-.73,5.59-.16,5.34,2.46,9.5,6.42,11.34,12.29.59,1.89,1.19,3.8-2.09,2.94Z" transform="translate(-54.15 -48.31)"/><path class="cls-165" d="M249.13,158.28c.59-.43,1.73-.92,1.69-1.27-.76-6.69-9.64-14-16.53-13.8l-2.62-2.32c8.91-1.66,21.62,8,20.72,16.35a11.78,11.78,0,0,1-1.09,2.9Z" transform="translate(-54.15 -48.31)"/><path class="cls-117" d="M229.3,136.21l1,4.09-.49,0-.49,0-2-4c0-.36.05-.73.08-1.09Z" transform="translate(-54.15 -48.31)"/><path class="cls-175" d="M255.29,162.2l-1-12h3c.33,3.77.88,7.53.94,11.3C258.27,165,256.84,164.39,255.29,162.2Z" transform="translate(-54.15 -48.31)"/><path class="cls-122" d="M124.35,204.2l1,2h-4l-1-2Z" transform="translate(-54.15 -48.31)"/><path class="cls-123" d="M140.34,203.17l-1-1,7,0c.33.34.67.67,1,1-2.49,7.16-3.57,14.87-8.71,21a11.68,11.68,0,0,1-4.28,3h-7c3.08-1.86,3.7-5.6,6-7.95C137.81,214.71,139.49,209.15,140.34,203.17Z" transform="translate(-54.15 -48.31)"/><path class="cls-176" d="M134.35,227.15c5-4.84,8-10.79,9.78-17.5.61-2.28,2.11-4.33,3.21-6.48h3.44c-.84,2.38-1.61,4.66-2.45,6.92-.55,1.48-.87,3.24-1.87,4.33a14.46,14.46,0,0,0-4.12,11.74l-2,1Z" transform="translate(-54.15 -48.31)"/><path class="cls-167" d="M140.34,203.17l2.17.68c-3.14,5.5-3.38,12.37-8.75,16.92-2.24,1.89-2.54,5.92-6.41,6.39h-5c8.21-4.49,12.47-12.06,15.93-20.28A37.48,37.48,0,0,1,140.34,203.17Z" transform="translate(-54.15 -48.31)"/><path class="cls-122" d="M96.36,216.16c8.27.6,16-.55,22-7-1.34,1.84-2.29,4.52-4.1,5.37C108.6,217.21,102.71,220.11,96.36,216.16Z" transform="translate(-54.15 -48.31)"/><path class="cls-177" d="M220.29,337.09l1,0c0,1.33,0,2.67,0,4l-2,8Z" transform="translate(-54.15 -48.31)"/><path class="cls-170" d="M221.35,333.11c.65-3,1.29-6,1.94-9.05a6.38,6.38,0,0,1,0,8c-.51,4,1.45,5.21,5.21,5.08,2.58-.08,5.18.59,7.78.93-1.43,2.7-3,4.83-6.43,2.39a3.66,3.66,0,0,0-2.42-.36c-4.3.68-5.68-1.33-5.24-5.32C222.26,334.28,221.65,333.68,221.35,333.11Z" transform="translate(-54.15 -48.31)"/><path class="cls-150" d="M225.3,323.1l19,1-1,3c-4.91,1.53-9.82,3.38-15,1.43C225.78,327.61,223.47,326.43,225.3,323.1Z" transform="translate(-54.15 -48.31)"/><path class="cls-178" d="M223.31,332.09q0-4,0-8,.59-4.46,1.19-8.89c.27,0,.54-.06.82-.08,0,.35,0,.71.07,1.06,0,2-.05,4-.07,6-1.12,1.92-.36,3.77.22,5.62,1.67,3.42,4.89,2.52,7.61,2.5,2.35,0,4.56-.28,6.16,1.88-.55.79-1.2,2.31-1.64,2.25C232.85,333.74,228.08,332.88,223.31,332.09Z" transform="translate(-54.15 -48.31)"/><path class="cls-179" d="M239.29,332.1c-4.08-.34-8.19-.49-12.23-1.13-1-.17-1.84-1.87-2.76-2.87,5.15-.22,10.33,1.4,15.48-.36.92-.31,1.81.61,2.5,1.35Z" transform="translate(-54.15 -48.31)"/><path class="cls-166" d="M242.28,329.09c-3.07,0-6.15.14-9.21,0s-5.84-.63-8.77-1q.49-3,1-6v1c.93,4.08,4.89,5.81,10.35,4.77,2.5-.48,5.08-.53,7.63-.78Z" transform="translate(-54.15 -48.31)"/><path class="cls-180" d="M226.3,316.11l.06-1a4.08,4.08,0,0,1,3.12-1.32,32.19,32.19,0,0,0,15.54-2c1.62-.66,3.28-.59,4.25,1.3l-1,3a19.23,19.23,0,0,1-12.6,3.29c-3.12-.21-6.27.27-9.38-.29Z" transform="translate(-54.15 -48.31)"/><path class="cls-149" d="M226.3,319.1l7.56-1.05,14.42-1.95-1,3c-4.1.75-8.19,2-12.31,2.1C232.1,321.29,229.19,319.85,226.3,319.1Z" transform="translate(-54.15 -48.31)"/><path class="cls-181" d="M249.27,313.09c-.94-.18-2.12-.83-2.77-.48-6.42,3.43-13.34,2.41-20.14,2.48.35-1.66.71-3.31,1.06-5,6.4,4.36,12.17,1.28,17.92-1.59,2-1,4-2.28,5.93-3.43l-2,6C249.28,311.77,249.28,312.43,249.27,313.09Z" transform="translate(-54.15 -48.31)"/><path class="cls-8" d="M261,326c-3.66,7.22-6.87,14.72-11.08,21.61-5.92,9.68-14.65,16.86-25.59,21.72-1.24.24-2.44,1.92-3.74-.42a2.07,2.07,0,0,1,1.28-1.7c11.58-4.28,19.21-12.56,26.29-21.41a15.33,15.33,0,0,0,4.37-7.11c.37-1.45,1.07-2.76,1.56-4.16a23.13,23.13,0,0,0,1.64-4,28.76,28.76,0,0,1,1.91-3.38,4.2,4.2,0,0,1,2.07-1.77A1.11,1.11,0,0,1,261,326Z" transform="translate(-54.15 -48.31)"/></svg>