<svg xmlns="http://www.w3.org/2000/svg" xmlns:xlink="http://www.w3.org/1999/xlink" width="37" height="31" viewBox="0 0 37 31" fill="none"><defs><rect id="path_0" x="0" y="0" width="37" height="31" /></defs><g opacity="1" transform="translate(0 0)  rotate(0 18.5 15.5)"><mask id="bg-mask-0" fill="white"><use xlink:href="#path_0"></use></mask><g mask="url(#bg-mask-0)" ><path id="分组 1" fill-rule="evenodd" style="fill:#12D269" transform="translate(2.7635789552472352e-14 0)  rotate(0 18.5 15.5)" opacity="1" d="M19.9781 7.95388C19.9781 6.79388 19.1881 5.96388 18.0281 5.96388C16.9181 5.96388 15.7381 6.73388 15.7381 7.95388C15.7581 9.17388 16.9381 9.94388 18.0281 9.94388C19.1681 9.94388 19.9781 9.13388 19.9781 7.95388Z M19.5745 7.94713C19.5745 7.00713 18.9545 6.37713 18.0245 6.37713C17.0945 6.37713 16.1645 6.98713 16.1645 7.94713C16.1645 8.89713 17.0945 9.52713 18.0245 9.52713C18.9545 9.52713 19.5745 8.89713 19.5745 7.94713Z M11.2952 7.95388C11.2952 6.79388 10.4852 5.96388 9.34519 5.96388C8.23519 5.96388 7.05519 6.73388 7.05519 7.95388C7.05519 9.17388 8.23519 9.94388 9.34519 9.94388C10.4852 9.94388 11.2952 9.13388 11.2952 7.95388Z M7.46213 7.94732C7.46213 8.89732 8.41213 9.52732 9.34213 9.52732C10.2721 9.52732 10.8921 8.89732 10.8921 7.94732C10.8921 7.00732 10.2721 6.37732 9.34213 6.37732C8.41213 6.37732 7.46213 6.98732 7.46213 7.94732Z M0 11.71C0 15.1 1.65 18.17 4.79 20.59L3.78 23.7C3.66 24.07 3.78 24.5 4.07 24.76C4.24 24.92 4.48 25 4.71 25C4.86 25 5.02 24.98 5.16 24.9L9.19 22.85L9.57 22.93C10.87 23.21 12 23.44 13.39 23.44C13.81 23.44 14.22 23.42 14.63 23.38C14.67 23.38 14.73 23.38 14.79 23.36C16.53 27.2 20.76 29.74 25.49 29.74C26.69 29.74 27.87 29.46 29.07 29.17L32.14 30.88C32.27 30.96 32.45 31 32.6 31C32.81 31 33.05 30.92 33.22 30.76C33.53 30.51 33.67 30.09 33.55 29.7L32.81 27.2C35.51 24.96 37 22.26 37 19.58C37 14.49 32.56 10.14 26.82 9.53C25.6 4.09 19.85 0 13.37 0C6.01 0 0 5.26 0 11.71Z M31.0729 26.0552C33.6229 24.1152 35.0229 21.8252 35.0229 19.6052C35.0229 15.1952 30.6429 11.4552 25.4629 11.4552C20.1929 11.4552 15.8929 15.1152 15.8929 19.6052C15.8929 24.0952 20.1929 27.7552 25.4629 27.7552C26.6129 27.7552 27.7929 27.4552 28.9529 27.1652C29.0329 27.1452 29.1129 27.1252 29.1929 27.1252C29.3429 27.1252 29.5229 27.1652 29.6529 27.2452L30.9729 27.9652L30.7229 27.1452C30.6029 26.7452 30.7429 26.3152 31.0729 26.0552Z M1.93819 11.7277C1.93819 14.7077 3.46819 17.2777 6.48819 19.4277C6.83819 19.6777 6.99819 20.1377 6.85819 20.5477L6.35819 22.0677L8.58819 20.9177C8.71819 20.8677 8.87819 20.8277 9.00819 20.8277C9.06819 20.8277 9.14819 20.8277 9.20819 20.8477L9.90819 20.9777C11.1082 21.2377 12.1282 21.4577 13.3582 21.4577C13.6082 21.4577 13.8782 21.4577 14.1282 21.4377C13.9982 20.8277 13.9382 20.1977 13.9382 19.6077C13.9382 14.2477 18.7382 9.81768 24.7682 9.48768C23.5282 5.19768 18.7182 2.00768 13.3782 2.00768C7.07819 2.00768 1.93819 6.37768 1.93819 11.7277Z M24.0092 16.7862C24.0092 15.9862 23.2592 15.1162 22.0592 15.1162C21.1992 15.1162 20.4092 15.9262 20.4092 16.7862C20.4092 17.6562 21.1992 18.4662 22.0592 18.4662C23.0092 18.4662 24.0092 17.8162 24.0092 16.7862Z M20.8159 16.7698C20.8159 17.3998 21.4359 18.0298 22.0559 18.0298C22.9859 18.0298 23.6059 17.3998 23.6059 16.7698C23.6059 16.1598 22.9859 15.5098 22.0559 15.5098C21.4359 15.5098 20.8159 16.1398 20.8159 16.7698Z M30.8518 16.7862C30.8518 15.9862 30.1018 15.1162 28.8818 15.1162C28.0218 15.1162 27.2318 15.9262 27.2318 16.7862C27.2318 17.6562 28.0218 18.4662 28.8818 18.4662C30.0818 18.4662 30.8318 17.5962 30.8518 16.7862Z M27.6387 16.7698C27.6387 17.3998 28.2587 18.0298 28.8787 18.0298C29.8087 18.0298 30.4287 17.3998 30.4287 16.7698C30.4287 16.1598 29.8087 15.5098 28.8787 15.5098C28.2587 15.5098 27.6387 16.1398 27.6387 16.7698Z " /></g></g></svg>